<?xml version="1.0" encoding="UTF-8" standalone="no"?>
<!-- Created with Inkscape (http://www.inkscape.org/) -->

<svg
   xmlns:dc="http://purl.org/dc/elements/1.1/"
   xmlns:cc="http://creativecommons.org/ns#"
   xmlns:rdf="http://www.w3.org/1999/02/22-rdf-syntax-ns#"
   xmlns:svg="http://www.w3.org/2000/svg"
   xmlns="http://www.w3.org/2000/svg"
   xmlns:xlink="http://www.w3.org/1999/xlink"
   xmlns:sodipodi="http://sodipodi.sourceforge.net/DTD/sodipodi-0.dtd"
   xmlns:inkscape="http://www.inkscape.org/namespaces/inkscape"
   width="1591.7568mm"
   height="2332.8242mm"
   viewBox="0 0 5640.083 8265.9123"
   id="svg2"
   version="1.1"
   inkscape:version="0.91 r13725"
   sodipodi:docname="Tree.svg"
   inkscape:export-filename="C:\Users\Amir\Desktop\Tree.png"
   inkscape:export-xdpi="90"
   inkscape:export-ydpi="90">
  <defs
     id="defs4">
    <linearGradient
       id="linearGradient4797"
       inkscape:collect="always">
      <stop
         id="stop4799"
         offset="0"
         style="stop-color:#008300;stop-opacity:1" />
      <stop
         style="stop-color:#009000;stop-opacity:1"
         offset="0.5"
         id="stop4801" />
      <stop
         id="stop4803"
         offset="1"
         style="stop-color:#00c400;stop-opacity:1" />
    </linearGradient>
    <linearGradient
       inkscape:collect="always"
       id="linearGradient4551">
      <stop
         style="stop-color:#c26d37;stop-opacity:1"
         offset="0"
         id="stop4553" />
      <stop
         id="stop4559"
         offset="0.30000001"
         style="stop-color:#b86833;stop-opacity:1" />
      <stop
         style="stop-color:#b46632;stop-opacity:1"
         offset="1"
         id="stop4555" />
    </linearGradient>
    <linearGradient
       inkscape:collect="always"
       id="linearGradient4531">
      <stop
         style="stop-color:#c26d37;stop-opacity:1"
         offset="0"
         id="stop4533" />
      <stop
         id="stop4539"
         offset="0.1635088"
         style="stop-color:#b46632;stop-opacity:1" />
      <stop
         style="stop-color:#b26531;stop-opacity:1"
         offset="1"
         id="stop4535" />
    </linearGradient>
    <linearGradient
       inkscape:collect="always"
       id="linearGradient4521">
      <stop
         style="stop-color:#c36e37;stop-opacity:1"
         offset="0"
         id="stop4523" />
      <stop
         id="stop4529"
         offset="0.30000001"
         style="stop-color:#b46632;stop-opacity:1" />
      <stop
         style="stop-color:#b06431;stop-opacity:1"
         offset="1"
         id="stop4525" />
    </linearGradient>
    <linearGradient
       inkscape:collect="always"
       id="linearGradient4488">
      <stop
         style="stop-color:#c46e37;stop-opacity:1"
         offset="0"
         id="stop4490" />
      <stop
         id="stop4496"
         offset="0.40000001"
         style="stop-color:#b56632;stop-opacity:1" />
      <stop
         style="stop-color:#ae6331;stop-opacity:1"
         offset="1"
         id="stop4492" />
    </linearGradient>
    <linearGradient
       inkscape:collect="always"
       id="linearGradient4376">
      <stop
         style="stop-color:#c46e37;stop-opacity:1"
         offset="0"
         id="stop4378" />
      <stop
         id="stop4382"
         offset="0.49999991"
         style="stop-color:#b36532;stop-opacity:1" />
      <stop
         style="stop-color:#ac6230;stop-opacity:1"
         offset="1"
         id="stop4380" />
    </linearGradient>
    <linearGradient
       id="linearGradient4360"
       inkscape:collect="always">
      <stop
         id="stop4362"
         offset="0"
         style="stop-color:#c46e37;stop-opacity:1" />
      <stop
         id="stop4366"
         offset="1"
         style="stop-color:#b46632;stop-opacity:1" />
    </linearGradient>
    <linearGradient
       inkscape:collect="always"
       id="linearGradient4350">
      <stop
         style="stop-color:#008300;stop-opacity:1"
         offset="0"
         id="stop4352" />
      <stop
         id="stop4358"
         offset="0.29999995"
         style="stop-color:#009000;stop-opacity:1" />
      <stop
         style="stop-color:#00c400;stop-opacity:1"
         offset="1"
         id="stop4354" />
    </linearGradient>
    <linearGradient
       inkscape:collect="always"
       id="linearGradient4237">
      <stop
         style="stop-color:#006800;stop-opacity:1"
         offset="0"
         id="stop4239" />
      <stop
         id="stop4795"
         offset="0.2"
         style="stop-color:#007900;stop-opacity:1;" />
      <stop
         style="stop-color:#00bc00;stop-opacity:1"
         offset="1"
         id="stop4241" />
    </linearGradient>
    <linearGradient
       inkscape:collect="always"
       id="linearGradient5931">
      <stop
         style="stop-color:#004c00;stop-opacity:1"
         offset="0"
         id="stop5933" />
      <stop
         id="stop5939"
         offset="0.21782431"
         style="stop-color:#007100;stop-opacity:1;" />
      <stop
         style="stop-color:#00d000;stop-opacity:1"
         offset="1"
         id="stop5935" />
    </linearGradient>
    <linearGradient
       inkscape:collect="always"
       id="linearGradient5265">
      <stop
         id="stop5269"
         offset="0"
         style="stop-color:#006e00;stop-opacity:1" />
      <stop
         style="stop-color:#009300;stop-opacity:1"
         offset="0.5"
         id="stop5273" />
      <stop
         id="stop5267"
         offset="1"
         style="stop-color:#00b100;stop-opacity:1" />
    </linearGradient>
    <linearGradient
       inkscape:collect="always"
       xlink:href="#linearGradient5931"
       id="linearGradient5937"
       x1="3111.1157"
       y1="1172.6869"
       x2="3111.1157"
       y2="-453.92035"
       gradientUnits="userSpaceOnUse" />
    <linearGradient
       inkscape:collect="always"
       xlink:href="#linearGradient5265"
       id="linearGradient6535"
       x1="589.04181"
       y1="722.43237"
       x2="589.04181"
       y2="281.87997"
       gradientUnits="userSpaceOnUse"
       gradientTransform="matrix(1.8776038,0,0,1.8776038,695.67205,-659.11773)" />
    <linearGradient
       inkscape:collect="always"
       xlink:href="#linearGradient4360"
       id="linearGradient4227"
       gradientUnits="userSpaceOnUse"
       gradientTransform="matrix(0.4623971,0,0,1.6575238,3597.5595,-667.75803)"
       spreadMethod="reflect"
       x1="1770.9592"
       y1="887.2735"
       x2="1910.399"
       y2="887.2735" />
    <linearGradient
       inkscape:collect="always"
       xlink:href="#linearGradient4237"
       id="linearGradient4243"
       x1="325.82202"
       y1="914.48883"
       x2="325.82202"
       y2="-318.82657"
       gradientUnits="userSpaceOnUse" />
    <radialGradient
       inkscape:collect="always"
       xlink:href="#linearGradient4350"
       id="radialGradient4356"
       cx="4415.3301"
       cy="351.06168"
       fx="4415.3301"
       fy="351.06168"
       r="609.80408"
       gradientTransform="matrix(0.88725927,0,0,0.8298814,497.78752,29.826009)"
       gradientUnits="userSpaceOnUse" />
    <linearGradient
       inkscape:collect="always"
       xlink:href="#linearGradient4360"
       id="linearGradient4370"
       gradientUnits="userSpaceOnUse"
       gradientTransform="matrix(0.4623971,0,0,1.6575238,2290.8007,-718.58133)"
       spreadMethod="reflect"
       x1="1770.9592"
       y1="887.2735"
       x2="1910.399"
       y2="887.2735" />
    <linearGradient
       inkscape:collect="always"
       xlink:href="#linearGradient4376"
       id="linearGradient4374"
       gradientUnits="userSpaceOnUse"
       gradientTransform="matrix(1.1392599,0,0,1.6575238,-246.28376,-718.58133)"
       spreadMethod="reflect"
       x1="1770.9592"
       y1="887.2735"
       x2="1887.0835"
       y2="887.2735" />
    <linearGradient
       inkscape:collect="always"
       xlink:href="#linearGradient4376"
       id="linearGradient4386"
       gradientUnits="userSpaceOnUse"
       gradientTransform="matrix(1.1392599,0,0,0.9613221,-1690.5738,41.489598)"
       spreadMethod="reflect"
       x1="1770.9592"
       y1="887.2735"
       x2="1887.0835"
       y2="887.2735" />
    <linearGradient
       inkscape:collect="always"
       xlink:href="#linearGradient4488"
       id="linearGradient4494"
       x1="5567.4443"
       y1="4600.8306"
       x2="5739.0757"
       y2="4600.8306"
       gradientUnits="userSpaceOnUse"
       spreadMethod="reflect"
       gradientTransform="translate(-2408.1611,-2502.912)" />
    <linearGradient
       inkscape:collect="always"
       xlink:href="#linearGradient4521"
       id="linearGradient4527"
       x1="2272.762"
       y1="2120.2439"
       x2="2468.5337"
       y2="2120.2439"
       gradientUnits="userSpaceOnUse"
       spreadMethod="reflect" />
    <linearGradient
       inkscape:collect="always"
       xlink:href="#linearGradient4531"
       id="linearGradient4537"
       x1="1225.5231"
       y1="2073.4321"
       x2="1653.7085"
       y2="2073.4321"
       gradientUnits="userSpaceOnUse"
       spreadMethod="reflect" />
    <linearGradient
       inkscape:collect="always"
       xlink:href="#linearGradient4551"
       id="linearGradient4557"
       x1="182.39615"
       y1="2103.6787"
       x2="372.89032"
       y2="2103.6787"
       gradientUnits="userSpaceOnUse"
       spreadMethod="reflect" />
    <radialGradient
       inkscape:collect="always"
       xlink:href="#linearGradient4350"
       id="radialGradient4696"
       gradientUnits="userSpaceOnUse"
       gradientTransform="matrix(0.88725927,0,0,0.8298814,497.78752,29.826009)"
       cx="4415.3301"
       cy="351.06168"
       fx="4415.3301"
       fy="351.06168"
       r="609.80408" />
    <radialGradient
       inkscape:collect="always"
       xlink:href="#linearGradient4350"
       id="radialGradient4698"
       gradientUnits="userSpaceOnUse"
       gradientTransform="matrix(0.88725927,0,0,0.8298814,497.78752,29.826009)"
       cx="4415.3301"
       cy="351.06168"
       fx="4415.3301"
       fy="351.06168"
       r="609.80408" />
    <radialGradient
       inkscape:collect="always"
       xlink:href="#linearGradient4350"
       id="radialGradient4700"
       gradientUnits="userSpaceOnUse"
       gradientTransform="matrix(0.88725927,0,0,0.8298814,497.78752,29.826009)"
       cx="4415.3301"
       cy="351.06168"
       fx="4415.3301"
       fy="351.06168"
       r="609.80408" />
    <radialGradient
       inkscape:collect="always"
       xlink:href="#linearGradient4350"
       id="radialGradient4702"
       gradientUnits="userSpaceOnUse"
       gradientTransform="matrix(0.88725927,0,0,0.8298814,497.78752,29.826009)"
       cx="4415.3301"
       cy="351.06168"
       fx="4415.3301"
       fy="351.06168"
       r="609.80408" />
    <radialGradient
       inkscape:collect="always"
       xlink:href="#linearGradient4350"
       id="radialGradient4704"
       gradientUnits="userSpaceOnUse"
       gradientTransform="matrix(0.88725927,0,0,0.8298814,497.78752,29.826009)"
       cx="4415.3301"
       cy="351.06168"
       fx="4415.3301"
       fy="351.06168"
       r="609.80408" />
    <radialGradient
       inkscape:collect="always"
       xlink:href="#linearGradient4350"
       id="radialGradient4706"
       gradientUnits="userSpaceOnUse"
       gradientTransform="matrix(0.88725927,0,0,0.8298814,497.78752,29.826009)"
       cx="4415.3301"
       cy="351.06168"
       fx="4415.3301"
       fy="351.06168"
       r="609.80408" />
    <radialGradient
       inkscape:collect="always"
       xlink:href="#linearGradient4350"
       id="radialGradient4708"
       gradientUnits="userSpaceOnUse"
       gradientTransform="matrix(0.88725927,0,0,0.8298814,497.78752,29.826009)"
       cx="4415.3301"
       cy="351.06168"
       fx="4415.3301"
       fy="351.06168"
       r="609.80408" />
    <radialGradient
       inkscape:collect="always"
       xlink:href="#linearGradient4797"
       id="radialGradient4710"
       gradientUnits="userSpaceOnUse"
       gradientTransform="matrix(0.88725927,0,0,0.8298814,497.78752,29.826009)"
       cx="4415.3301"
       cy="351.06168"
       fx="4415.3301"
       fy="351.06168"
       r="609.80408" />
    <linearGradient
       inkscape:collect="always"
       xlink:href="#linearGradient4521"
       id="linearGradient4712"
       gradientUnits="userSpaceOnUse"
       spreadMethod="reflect"
       x1="2272.762"
       y1="2120.2439"
       x2="2468.5337"
       y2="2120.2439" />
    <linearGradient
       inkscape:collect="always"
       xlink:href="#linearGradient4521"
       id="linearGradient4714"
       gradientUnits="userSpaceOnUse"
       spreadMethod="reflect"
       x1="2272.762"
       y1="2120.2439"
       x2="2468.5337"
       y2="2120.2439" />
  </defs>
  <sodipodi:namedview
     id="base"
     pagecolor="#ffffff"
     bordercolor="#666666"
     borderopacity="1.0"
     inkscape:pageopacity="0.0"
     inkscape:pageshadow="2"
     inkscape:zoom="0.056568542"
     inkscape:cx="2990.4852"
     inkscape:cy="4033.0905"
     inkscape:document-units="px"
     inkscape:current-layer="layer1"
     showgrid="false"
     inkscape:window-width="1366"
     inkscape:window-height="705"
     inkscape:window-x="-8"
     inkscape:window-y="-8"
     inkscape:window-maximized="1"
     fit-margin-top="50"
     fit-margin-left="50"
     fit-margin-right="50"
     fit-margin-bottom="50"
     showguides="false"
     inkscape:snap-page="true" />
  <metadata
     id="metadata7">
    <rdf:RDF>
      <cc:Work
         rdf:about="">
        <dc:format>image/svg+xml</dc:format>
        <dc:type
           rdf:resource="http://purl.org/dc/dcmitype/StillImage" />
        <dc:title />
      </cc:Work>
    </rdf:RDF>
  </metadata>
  <g
     inkscape:label="Layer 1"
     inkscape:groupmode="layer"
     id="layer1"
     transform="translate(437.78352,1215.6675)">
    <path
       style="opacity:0.2;fill:#000000;fill-rule:evenodd;stroke:none;stroke-width:0.53259373px;stroke-linecap:butt;stroke-linejoin:miter;stroke-opacity:1"
       d="m 4120.5679,920.99704 -27.8199,83.67416 67.1214,-29.17466 -18.7077,61.24246 61.2587,-32.6087 -20.173,60.3839 63.4829,-29.4532 0.1352,46.5927 c -118.4312,-17.5488 -249.2517,-28.5062 -420.0474,-18.1964 l 128.9859,67.225 -4.1519,-39.4132 95.583,48.7428 -14.4255,-40.2237 77.0321,40.1989 c -68.9306,17.5485 -136.093,40.7339 -200.2044,73.6436 l 210.6685,13.3423 -71.8454,-27.3566 154.2378,9.1118 -80.6875,-25.1354 152.0269,9.6674 -72.6516,-25.9266 154.655,1.6433 -83.1061,-20.8459 30.9202,-1.0792 28.9581,9.1649 -8.017,-9.8959 24.593,-0.8586 27.595,13.1853 -1.1517,-14.1082 38.4007,-1.3402 41.4277,1.446 -1.2802,13.4261 26.5454,-12.544 25.3536,0.8845 -7.694,9.3238 27.5724,-8.63 29.3755,1.0255 -83.108,20.8459 154.6571,-1.6433 -72.6516,25.9266 152.0249,-9.6674 -80.6874,25.1354 154.2376,-9.1118 -71.8454,27.3566 210.6685,-13.3423 c -63.4581,-32.5746 -129.9028,-55.6248 -198.0953,-73.1087 l 78.6219,-40.5714 -14.9749,40.1918 96.2496,-48.5372 -4.692,39.4036 129.9034,-66.948 c -173.9467,-10.8817 -306.6633,0.4212 -427.1504,18.3051 l 0.1314,-45.2331 63.4848,29.4533 -20.173,-60.3839 61.2587,32.6086 -18.7076,-61.24238 67.1192,29.17468 -27.8178,-83.67418 c -161.9415,46.56403 -234.9523,98.49758 -290.1416,151.50718 -55.4502,-53.7276 -128.2272,-106.40871 -292.2776,-153.57906 z m 175.6906,141.81676 8.2966,28.1579 c -13.4626,-2.264 -27.0341,-4.4704 -40.7536,-6.5977 z m 231.0358,2.0718 30.8013,20.4602 c -13.0045,2.0237 -25.8824,4.1155 -38.6709,6.2553 z m 185.1465,44.8216 -5.5492,27.5934 c -13.4932,-3.3141 -27.051,-6.4242 -40.6648,-9.3546 z m -594.8487,0.023 44.6109,17.7978 c -13.2491,2.8344 -26.4466,5.8352 -39.5829,9.0292 z m 509.5088,5.4693 -2.751,4.2909 c -2.2804,-0.4325 -4.5613,-0.8628 -6.8445,-1.2873 z m -424.2444,0.205 7.8375,2.4803 c -1.8764,0.3474 -3.7518,0.6979 -5.6264,1.0505 z"
       id="path6429"
       inkscape:connector-curvature="0"
       sodipodi:nodetypes="cccccccccccccccccccccccccccccccccccccccccccccccccccccccccccccccccccccccccccccccccccccc"
       inkscape:export-xdpi="90"
       inkscape:export-ydpi="90" />
    <rect
       y="352.69186"
       x="4362.4956"
       height="757.56903"
       width="105.66898"
       id="rect4225"
       style="opacity:1;fill:url(#linearGradient4227);fill-opacity:1;stroke:none;stroke-width:5;stroke-linecap:round;stroke-linejoin:round;stroke-miterlimit:4;stroke-dasharray:none"
       inkscape:export-xdpi="90"
       inkscape:export-ydpi="90" />
    <ellipse
       style="opacity:0.2;fill:#000000;fill-opacity:1;stroke:none;stroke-width:5;stroke-linecap:round;stroke-linejoin:round;stroke-miterlimit:4;stroke-dasharray:none"
       id="path6406"
       cx="303.49179"
       cy="1070.5162"
       rx="547.87726"
       ry="190.74245"
       inkscape:export-xdpi="90"
       inkscape:export-ydpi="90" />
    <ellipse
       ry="125.80885"
       rx="361.19315"
       cy="1070.5162"
       cx="3111.8699"
       id="ellipse6408"
       style="opacity:0.2;fill:#000000;fill-opacity:1;stroke:none;stroke-width:5;stroke-linecap:round;stroke-linejoin:round;stroke-miterlimit:4;stroke-dasharray:none"
       inkscape:export-xdpi="90"
       inkscape:export-ydpi="90" />
    <rect
       style="opacity:1;fill:url(#linearGradient4386);fill-opacity:1;stroke:none;stroke-width:5;stroke-linecap:round;stroke-linejoin:round;stroke-miterlimit:4;stroke-dasharray:none"
       id="rect4384"
       width="260.3486"
       height="439.37097"
       x="194.08522"
       y="633.32489"
       inkscape:export-xdpi="90"
       inkscape:export-ydpi="90" />
    <path
       style="opacity:1;fill:url(#linearGradient4243);fill-opacity:1;stroke:none;stroke-width:10;stroke-linecap:round;stroke-linejoin:round;stroke-miterlimit:4;stroke-dasharray:none"
       d="M 334.36011,-317.40371 A 350.52292,350.52292 0 0 0 -16.16333,33.117776 350.52292,350.52292 0 0 0 4.9558099,152.00059 350.52292,350.52292 0 0 0 -260.61841,491.72715 350.52292,350.52292 0 0 0 89.90308,842.25059 350.52292,350.52292 0 0 0 324.24292,751.8502 350.52292,350.52292 0 0 0 558.61401,842.25059 350.52292,350.52292 0 0 0 909.13745,491.72715 350.52292,350.52292 0 0 0 661.89917,156.78184 350.52292,350.52292 0 0 0 684.88355,33.117776 350.52292,350.52292 0 0 0 334.36011,-317.40371 Z"
       id="path3338"
       inkscape:connector-curvature="0"
       inkscape:export-xdpi="90"
       inkscape:export-ydpi="90" />
    <path
       style="opacity:1;fill:url(#linearGradient4557);fill-opacity:1;stroke:none;stroke-width:5;stroke-linecap:round;stroke-linejoin:round;stroke-miterlimit:4;stroke-dasharray:none"
       d="m -83.963211,1351.1239 c 30.6532,492.3089 97.8183,1003.051 -105.515639,1505.1094 61.85434,-96.1368 154.811139,-153.5528 256.242139,-178.1875 l 12.5625,158.7851 169.884801,-116.8613 61.2793,-42.1523 c 100.6598,23.1963 192.0423,74.4625 251.6289,147.9043 -271.2823,-369.9044 -153.937,-954.2254 -152.4961,-1474.5977 l -493.585901,0 z M 562.11879,2825.7216 c 4.5258,6.1711 9.152,12.2854 13.8965,18.3359 -4.4106,-6.2588 -9.0536,-12.3669 -13.8965,-18.3359 z"
       id="rect5941"
       inkscape:connector-curvature="0" />
    <path
       style="opacity:1;fill:url(#linearGradient4537);fill-opacity:1;stroke:none;stroke-width:5;stroke-linecap:round;stroke-linejoin:round;stroke-miterlimit:4;stroke-dasharray:none"
       d="m 1350.0409,1286.6157 c -91.1373,74.4863 -127.9957,101.1523 -281.4866,209.7718 l -24.6057,97.5365 -180.9268,-115.0347 -43.7488,68.809 169.1595,107.5512 90.2827,265.3984 -0.4798,-1.2334 c 31.05,307.7952 37.3903,617.4922 -71.2175,936.0303 54.3373,-65.848 115.0595,-99.9839 174.789,-111.4033 l 100.5222,115.0266 20.971,-108.6712 c 64.2641,18.7975 120.0338,60.26 155.3548,109.8516 -159.8043,-313.4329 -101.2735,-626.8648 -65.3361,-940.2976 l 116.6535,-233.3103 -0.1545,0.3142 143.8907,-282.9814 -94.5428,-47.2722 -104.945,209.8899 -141.3949,-137.2958 91.6488,-68.1795 z m -123.1282,206.5936 176.0986,170.994 -102.0837,204.1673 c -44.5786,22.3671 -88.4775,31.144 -131.233,17.0486 l -63.039,-205.2661 30.2727,-120.0004 z"
       id="rect5952"
       inkscape:connector-curvature="0"
       sodipodi:nodetypes="ccccccccccccccccccccccccccccc" />
    <path
       inkscape:connector-curvature="0"
       id="path6132"
       d="m 1807.2904,903.59905 a 118.00265,41.108199 0 0 0 -113.0895,29.44783 450.27324,143.05653 0 0 0 -26.6724,1.90258 80.738648,36.175216 0 0 0 -65.189,-14.90697 80.738648,36.175216 0 0 0 -80.7043,35.87624 99.370647,36.175216 0 0 0 -55.9298,-6.27834 99.370647,36.175216 0 0 0 -99.3707,36.17501 99.370647,36.175216 0 0 0 8.9169,14.8689 43.47466,18.909772 0 0 0 -39.9707,18.8396 43.47466,18.909772 0 0 0 10.6966,12.3866 51.237988,18.909772 0 0 0 -2.9337,-0.054 51.237988,18.909772 0 0 0 -51.2378,18.909 51.237988,18.909772 0 0 0 44.0265,18.6985 450.27324,143.05653 0 0 0 -0.3086,1.9573 31.053329,19.731935 0 0 0 -28.192,19.6309 31.053329,19.731935 0 0 0 25.5566,19.4037 29.500661,9.0438035 0 0 0 -3.8191,4.4385 29.500661,9.0438035 0 0 0 19.1314,8.4562 31.053329,27.131411 0 0 0 -0.4988,4.6982 31.053329,27.131411 0 0 0 31.0538,27.1323 31.053329,27.131411 0 0 0 0.9743,-0.03 46.579995,16.44328 0 0 0 45.6052,13.1846 46.579995,16.44328 0 0 0 15.8471,-0.9972 45.027324,30.420067 0 0 0 -0.3212,3.4638 45.027324,30.420067 0 0 0 45.0282,30.4204 45.027324,30.420067 0 0 0 8.9508,-0.6401 59.00132,23.842756 0 0 0 42.2869,7.2173 59.00132,23.842756 0 0 0 8.3019,-0.2619 57.448657,20.554101 0 0 0 55.357,15.0602 57.448657,20.554101 0 0 0 34.1797,-4.0613 62.106659,20.554101 0 0 0 54.3234,10.6383 62.106659,20.554101 0 0 0 43.2867,-5.8147 41.921994,19.731935 0 0 0 29.6884,5.8147 41.921994,19.731935 0 0 0 22.6717,-3.1344 65.211987,28.775741 0 0 0 40.9872,6.4236 65.211987,28.775741 0 0 0 52.2439,-11.6109 71.422653,32.886561 0 0 0 37.8105,5.0339 71.422653,32.886561 0 0 0 56.1307,-12.6104 54.343325,22.198429 0 0 0 26.1608,2.7441 54.343325,22.198429 0 0 0 52.546,-16.6472 37.263993,24.664921 0 0 0 27.2052,-11.4656 65.211987,15.621116 0 0 0 8.7519,0.1589 65.211987,15.621116 0 0 0 65.0728,-14.9617 59.00132,26.309247 0 0 0 6.3489,0.1633 59.00132,26.309247 0 0 0 59.0006,-26.3097 59.00132,26.309247 0 0 0 -1.8556,-6.4519 54.343325,25.487082 0 0 0 36.0141,-23.9675 54.343325,25.487082 0 0 0 -8.1094,-13.358 45.027324,27.131411 0 0 0 11.2162,-17.885 45.027324,27.131411 0 0 0 -14.8072,-20.0695 43.47466,34.530888 0 0 0 11.7004,-23.5053 43.47466,34.530888 0 0 0 -37.779,-34.1952 57.448657,30.420067 0 0 0 -56.9334,-26.64445 57.448657,30.420067 0 0 0 -21.1627,2.14873 450.27324,143.05653 0 0 0 -1.5004,-0.54171 57.448657,28.775741 0 0 0 5.5837,-12.29487 57.448657,28.775741 0 0 0 -57.4471,-28.77638 57.448657,28.775741 0 0 0 -35.7437,6.24809 83.843988,31.242231 0 0 0 -83.8111,-30.91284 83.843988,31.242231 0 0 0 -53.5245,7.2297 118.00265,41.108199 0 0 0 -101.7443,-20.384 z"
       style="opacity:0.2;fill:#000000;fill-opacity:1;stroke:none;stroke-width:5;stroke-linecap:round;stroke-linejoin:round;stroke-miterlimit:4;stroke-dasharray:none"
       inkscape:export-xdpi="90"
       inkscape:export-ydpi="90" />
    <rect
       y="301.86856"
       x="1638.3752"
       height="757.56903"
       width="260.3486"
       id="rect4372"
       style="opacity:1;fill:url(#linearGradient4374);fill-opacity:1;stroke:none;stroke-width:5;stroke-linecap:round;stroke-linejoin:round;stroke-miterlimit:4;stroke-dasharray:none"
       inkscape:export-xdpi="90"
       inkscape:export-ydpi="90" />
    <path
       sodipodi:nodetypes="cccccccccccccccccccccccccccccccccccccccccccccccccccccccccccccccccccccccccccccccccccccccccccccccccccccccc"
       inkscape:connector-curvature="0"
       id="path4144"
       d="m 1802.0933,-299.39338 c -18.5044,0.34086 -35.6347,7.48078 -45.9279,19.14275 -15.2141,-10.37139 -34.2906,-15.85097 -53.8381,-15.46456 -28.5176,0.6043 -54.6493,13.58696 -69.1266,34.34328 -9.6464,-2.20314 -19.837,-3.26308 -30.0747,-3.12812 -29.2202,0.46964 -55.9851,10.59387 -70.7622,26.76686 -11.9065,-11.58923 -28.3027,-17.95549 -45.2972,-17.58788 -28.4498,0.67313 -52.7022,19.89911 -58.6385,46.48536 -20.9507,3.00629 -37.0883,17.62697 -39.5983,35.87617 -13.8296,7.2878 -22.7583,25.01959 -22.4139,44.51243 l 0,0.0113 c 0.053,2.40829 0.2478,4.80764 0.5831,7.17669 -0.231,-0.008 -0.462,-0.0131 -0.6931,-0.0188 -23.8251,0.55066 -42.6832,19.89972 -42.1214,43.217872 l 0,0.01127 c 0.063,1.879425 0.254,3.752654 0.5721,5.607144 -9.8591,8.00445 -15.5357,20.590611 -15.2629,33.84088 l 0,0.01127 c 0.077,2.794907 0.4185,5.574212 1.0195,8.295197 -23.4729,4.739016 -40.1324,25.2777861 -39.5764,48.792014 l 0,0.01127 c 0.1513,5.391126 1.2146,10.720085 3.1465,15.768943 -12.5673,7.970372 -20.014,21.747797 -19.6745,36.400579 l 0,0.01127 c 0.1654,6.483892 1.8544,12.843373 4.936,18.585348 -8.1453,8.196717 -12.5447,18.973733 -12.2814,30.085653 l 0,0.0113 c 0.284,10.24152 4.5126,20.05587 11.9294,27.68733 -3.1365,6.35646 -4.7222,13.58028 -4.5877,20.89935 l 0,0.0113 c 0.1228,5.37226 1.17,10.66216 3.0804,15.55991 -13.7946,9.36305 -21.8171,24.56681 -21.4384,40.62885 l 0,0.015 c 0.3574,13.27002 6.4274,25.82586 16.8031,34.75768 -7.5805,8.89933 -11.576,19.98302 -11.295,31.33251 l 0,0.015 c 0.4967,18.38392 12.0969,34.93712 29.983,42.78517 -6.6261,9.62425 -10.0442,21.03855 -9.7804,32.66003 l 0,0.015 c 0.5193,20.77877 12.6919,39.56568 31.6186,48.79938 -1.6008,4.94855 -2.3572,10.1071 -2.2407,15.28119 l 0,0.015 c 0.6379,24.75033 20.8096,45.10194 46.8668,47.28483 -0.7144,3.81645 -1.0365,7.70287 -0.9608,11.592 l 0,0.015 c 12.9078,34.98241 58.4265,91.23794 90.9647,91.42684 2.9498,-0.0856 5.8825,-0.48018 8.75,-1.17718 -0.4195,2.57431 -0.606,5.17764 -0.5574,7.78179 l 0,0.0113 c 0.5985,22.55423 18.4805,41.35501 42.1837,44.35107 6.9786,21.09309 33.6602,35.82601 63.9962,35.33708 14.3686,-0.24805 28.2061,-3.92918 39.3013,-10.45517 9.903,9.98358 30.7057,16.21955 53.277,15.97063 9.1093,-0.10739 18.0382,-1.27217 26.0591,-3.39949 4.1133,17.20223 23.2546,29.51325 45.2495,29.10286 11.3486,-0.22616 22.1702,-3.85867 30.2947,-10.16912 10.3028,6.74518 23.8735,10.38951 37.8675,10.16912 13.3615,-0.2433 26.1249,-3.99447 35.8358,-10.53218 10.3606,9.30926 25.0573,14.48288 40.3465,14.20304 12.3866,-0.2565 24.2774,-4.07962 33.6245,-10.81088 7.5049,9.60736 17.3803,14.79602 27.5627,14.48175 16.6778,-0.5829 31.2929,-15.73085 36.5105,-37.84179 8.0016,0.79439 16.4186,1.1754 24.871,1.12583 40.0441,-0.27721 71.7357,-9.95232 70.7878,-21.61077 -0.2329,-2.70632 -2.2511,-5.37436 -5.9445,-7.8588 34.9086,-1.21823 61.8445,-17.35329 61.0368,-36.56195 -0.2492,-5.13487 -2.5067,-10.18018 -6.6193,-14.79345 0.4558,0.0131 0.9118,0.0214 1.3679,0.0257 26.8653,-0.43405 48.1266,-15.57805 47.4902,-33.82622 -0.2235,-6.34923 -3.1352,-12.52028 -8.3869,-17.77488 18.7366,-1.43132 32.686,-11.5068 32.2603,-23.30136 -0.169,-4.04731 -2.0478,-7.99469 -5.4458,-11.44165 25.0125,-0.84415 44.5887,-17.96512 44.0063,-38.48722 -0.2129,-7.25532 -2.979,-14.3055 -7.9651,-20.30159 0.9453,0.0434 1.8917,0.0655 2.8384,0.0661 29.9077,-0.61497 53.5764,-22.07044 52.8663,-47.92291 -0.341,-11.84062 -5.8603,-23.1296 -15.4462,-31.59288 16.1085,-6.45557 26.851,-24.93546 26.4661,-45.52823 -0.1461,-6.69773 -1.4742,-13.27939 -3.8946,-19.30043 16.3148,-7.31411 26.3548,-21.83302 25.9271,-37.4934 -0.2587,-8.50194 -3.6012,-16.72898 -9.5714,-23.55807 16.4097,-8.09507 26.5268,-24.27513 26.0995,-41.74002 -0.4615,-17.39829 -11.3121,-33.05433 -28.0211,-40.43082 2.8738,-7.22286 4.2936,-15.11305 4.1513,-23.07032 -0.3921,-18.16642 -8.8574,-34.795793 -22.3626,-43.929322 3.9829,-8.378225 6.0033,-17.965795 5.8345,-27.687333 -0.4051,-20.004404 -9.9807,-37.971326 -24.6692,-46.287327 4.3043,-9.0916208 6.488,-19.4868428 6.3076,-30.026997 -0.5776,-29.488256 -19.2254,-53.54451 -42.9649,-55.425982 0.548,-3.928454 0.7909,-7.902646 0.7262,-11.878041 -0.7631,-35.551378 -25.5844,-64.604588 -57.278,-67.043648 0.277,-2.33935 0.3945,-4.6921 0.3521,-7.0447 -0.8179,-31.4272 -29.4213,-56.30044 -63.8899,-55.558 -3.3246,0.0804 -6.6368,0.40296 -9.9051,0.96447 -6.8803,-4.37526 -15.1204,-6.64532 -23.5214,-6.47993 -2.5051,0.0638 -4.9978,0.34376 -7.4444,0.83612 0.085,-1.25475 0.1177,-2.51242 0.099,-3.76987 -0.6009,-25.34446 -21.6323,-45.40392 -46.9768,-44.80579 -2.9311,0.0817 -5.8476,0.44389 -8.7096,1.08184 -10.1442,-9.2367 -23.5468,-14.23293 -37.3724,-13.93169 -7.4563,0.19565 -14.7877,1.92854 -21.5191,5.08641 -11.9559,-13.63412 -35.2586,-21.98229 -60.3437,-21.61811 -9.5408,0.15716 -18.9165,1.5752 -27.4966,4.15859 -9.9283,-5.28615 -21.8249,-8.02934 -33.9546,-7.82945 z"
       style="opacity:1;fill:url(#linearGradient6535);fill-opacity:1;stroke:none;stroke-width:5;stroke-linecap:round;stroke-linejoin:round;stroke-miterlimit:4;stroke-dasharray:none"
       inkscape:export-xdpi="90"
       inkscape:export-ydpi="90" />
    <rect
       style="opacity:1;fill:url(#linearGradient4370);fill-opacity:1;stroke:none;stroke-width:5;stroke-linecap:round;stroke-linejoin:round;stroke-miterlimit:4;stroke-dasharray:none"
       id="rect4368"
       width="105.66898"
       height="757.56903"
       x="3055.7368"
       y="301.86856"
       inkscape:export-xdpi="90"
       inkscape:export-ydpi="90" />
    <g
       transform="matrix(1.8776038,0,0,1.8776038,695.67205,-659.11773)"
       id="g5912"
       style="stroke:none"
       inkscape:export-xdpi="90"
       inkscape:export-ydpi="90">
      <g
         id="g5903">
        <g
           id="g5298"
           transform="matrix(0.6846074,0,0,0.6846074,424.06121,375.89834)"
           style="fill:#008000;fill-opacity:1">
          <path
             style="opacity:1;fill:url(#linearGradient5937);fill-opacity:1;stroke:none;stroke-width:5;stroke-linecap:round;stroke-linejoin:round;stroke-miterlimit:4;stroke-dasharray:none"
             d="m 3108.5723,-452.91211 -49.9785,171.60938 -24.8926,85.47656 -32.252,51.66601 -107.1211,171.611332 100.3125,0 -11.8496,16.167969 -125.7793,171.609379 104.1074,0 -141.7343,168.21875 99.5703,0 -107.2149,207.33789 97.6446,0 -149.0723,245.71484 348.2598,0 348.2578,0 -149.0723,-245.71484 97.6445,0 -107.2148,-207.33789 99.5703,0 -141.7344,-168.21875 104.1075,0 -125.7793,-171.609379 -11.8496,-16.167969 100.3125,0 -107.1211,-171.611332 -32.252,-51.66796 -24.8926,-85.47461 -49.9765,-171.60938 z"
             transform="matrix(0.77795496,0,0,0.77795496,-1160.624,-36.307486)"
             id="path5279"
             inkscape:connector-curvature="0" />
        </g>
      </g>
    </g>
    <g
       style="fill:url(#radialGradient4356);fill-opacity:1"
       id="g4340"
       inkscape:export-xdpi="90"
       inkscape:export-ydpi="90">
      <g
         style="fill:url(#radialGradient4708);fill-opacity:1"
         id="g4229">
        <path
           style="fill:url(#radialGradient4696);fill-opacity:1;fill-rule:evenodd;stroke:none;stroke-width:0.53259373px;stroke-linecap:butt;stroke-linejoin:miter;stroke-opacity:1"
           d="m 4421.4409,290.59046 c 172.5133,-98.77832 343.5256,-200.139218 603.6934,-148.09381 l -134.3753,221.45412 4.8521,-130.34091 -99.5607,160.55527 15.4901,-132.9505 -96.9013,159.90279 8.0275,-127.62926 -113.2929,142.98058 25.0155,-124.81559 -133.9721,134.09122 25.9665,-100.61497 -71.6927,108.34167 3.1437,-105.48788 z"
           id="path6410"
           inkscape:connector-curvature="0"
           sodipodi:nodetypes="ccccccccccccccc" />
        <path
           sodipodi:nodetypes="ccccccccccccccc"
           inkscape:connector-curvature="0"
           id="path6412"
           d="M 4408.5769,292.72655 C 4236.489,192.76813 4065.913,90.23742 3805.5262,140.50014 l 133.4253,222.37121 -4.294,-130.37225 98.8719,161.23484 -14.9207,-133.05465 96.2154,160.56415 -7.481,-127.68239 112.6792,143.75446 -24.481,-124.98509 133.3961,135.00685 -25.5353,-100.79133 71.2279,108.83112 -2.6921,-105.50785 z"
           style="fill:url(#radialGradient4698);fill-opacity:1;fill-rule:evenodd;stroke:none;stroke-width:0.53259373px;stroke-linecap:butt;stroke-linejoin:miter;stroke-opacity:1" />
        <path
           sodipodi:nodetypes="ccccccccccccccc"
           inkscape:connector-curvature="0"
           id="path6414"
           d="m 4368.797,320.80381 c 66.7678,-224.150956 131.0307,-448.7856 344.0908,-644.69063 l 28.776,276.783493 -69.4302,-96.504913 19.3511,202.581529 -63.3669,-107.865184 20.8668,199.741485 -65.6688,-97.427681 -0.184,202.437231 -52.0838,-110.63309 -19.775,214.64789 -37.8832,-94.37116 9.869,140.7345 -56.7451,-77.40298 z"
           style="fill:url(#radialGradient4700);fill-opacity:1;fill-rule:evenodd;stroke:none;stroke-width:0.53259373px;stroke-linecap:butt;stroke-linejoin:miter;stroke-opacity:1" />
        <path
           style="fill:url(#radialGradient4702);fill-opacity:1;fill-rule:evenodd;stroke:none;stroke-width:0.53259373px;stroke-linecap:butt;stroke-linejoin:miter;stroke-opacity:1"
           d="M 4454.5106,313.95038 C 4387.7428,89.799432 4323.4799,-134.83521 4110.4198,-330.74024 l -28.776,276.783471 69.4302,-96.504911 -19.3511,202.581565 63.3668,-107.865203 -20.8667,199.741468 65.6688,-97.427682 0.184,202.437212 52.0838,-110.63305 19.7749,214.64787 37.8833,-94.37114 -9.869,140.73447 56.7451,-77.40295 z"
           id="path6416"
           inkscape:connector-curvature="0"
           sodipodi:nodetypes="ccccccccccccccc" />
        <path
           sodipodi:nodetypes="ccccccccccccccc"
           inkscape:connector-curvature="0"
           id="path6422"
           d="m 4416.0298,220.22299 c 179.0031,78.14739 358.318,153.11382 519.0964,417.03066 l -217.9199,44.13619 74.318,-90.4929 -159.5464,30.14112 83.4651,-83.1442 -157.2596,31.97816 75.1524,-85.763 -159.9792,5.43669 85.9682,-68.95498 -170.1772,-18.99369 73.5151,-50.5438 -110.9378,16.41982 59.5779,-73.91879 z"
           style="fill:url(#radialGradient4704);fill-opacity:1;fill-rule:evenodd;stroke:none;stroke-width:0.53259373px;stroke-linecap:butt;stroke-linejoin:miter;stroke-opacity:1" />
        <path
           style="fill:url(#radialGradient4706);fill-opacity:1;fill-rule:evenodd;stroke:none;stroke-width:0.53259373px;stroke-linecap:butt;stroke-linejoin:miter;stroke-opacity:1"
           d="m 4410.2928,220.22299 c -179.0029,78.14739 -358.318,153.11382 -519.0962,417.03066 l 217.9197,44.13619 -74.3178,-90.4929 159.5462,30.14112 -83.4649,-83.1442 157.2594,31.97816 -75.1524,-85.763 159.9794,5.43669 -85.9684,-68.95498 170.1772,-18.99369 -73.5151,-50.5438 110.9378,16.41982 -59.5778,-73.91879 z"
           id="path6424"
           inkscape:connector-curvature="0"
           sodipodi:nodetypes="ccccccccccccccc" />
      </g>
      <path
         sodipodi:nodetypes="sssss"
         inkscape:connector-curvature="0"
         id="path6426"
         d="m 4471.9182,369.52456 c 0,47.31308 -30.6048,65.10761 -65.0158,65.10759 -34.411,-6e-5 -59.5978,-17.79456 -59.5978,-65.10759 0,-47.31298 27.8956,-85.66779 62.3068,-85.66783 34.4111,-2e-5 62.3068,38.35479 62.3068,85.66783 z"
         style="opacity:1;fill:url(#radialGradient4710);fill-opacity:1;stroke:none;stroke-width:5;stroke-linecap:round;stroke-linejoin:round;stroke-miterlimit:4;stroke-dasharray:none" />
    </g>
    <g
       style="fill:url(#linearGradient4527);fill-opacity:1;stroke:none"
       id="g4273">
      <g
         style="fill:url(#linearGradient4712);fill-opacity:1;stroke:none"
         id="g6454"
         transform="matrix(0.74738261,-1.0744986,0.84013324,0.95587402,-2993.6924,4353.0178)" />
      <path
         sodipodi:nodetypes="ccsccssccssc"
         inkscape:connector-curvature="0"
         id="path4392"
         d="m 2128.4327,1418.5615 213.6148,54.4563 c 154.0218,598.2165 28.9518,1164.1103 22.9474,1156.5429 l 103.5387,130.4883 -48.9385,61.8775 -126.0306,-149.1297 c -67.5908,-79.9791 -161.6531,-74.9617 -224.0704,-1.8199 l -106.4281,124.7145 -55.9292,-35.2561 105.6334,-139.3498 c 21.5354,-28.4092 23.5701,-344.8476 161.5171,-629.1071 82.366,-169.727 2.0902,-391.2286 -45.8546,-573.4169 z"
         style="opacity:1;fill:url(#linearGradient4714);fill-opacity:1;stroke:none;stroke-width:5;stroke-linecap:round;stroke-linejoin:round;stroke-miterlimit:4;stroke-dasharray:none" />
    </g>
    <g
       id="g4404"
       transform="translate(-1351.0723,1825.2194)"
       style="fill:#a05a2c;fill-opacity:1">
      <g
         id="g4406"
         transform="translate(321.42191,0)"
         style="fill:#a05a2c;fill-opacity:1">
        <g
           id="g4408"
           style="fill:#a05a2c;fill-opacity:1" />
      </g>
    </g>
    <text
       sodipodi:linespacing="125%"
       id="text4580"
       y="3392.835"
       x="1368.455"
       style="font-style:normal;font-variant:normal;font-weight:normal;font-stretch:normal;font-size:364.69836426px;line-height:125%;font-family:'Comic Sans MS';-inkscape-font-specification:'Comic Sans MS';letter-spacing:0px;word-spacing:0px;fill:#000000;fill-opacity:1;stroke:none;stroke-width:1px;stroke-linecap:butt;stroke-linejoin:miter;stroke-opacity:1"
       xml:space="preserve"><tspan
         y="3392.835"
         x="1368.455"
         id="tspan4582"
         sodipodi:role="line">No Shading</tspan></text>
    <path
       sodipodi:nodetypes="cccccccccccccccccccccccccccccccccccccccccccccccccccccccccccccccccccccccccccccccccccccc"
       inkscape:connector-curvature="0"
       id="path4584"
       d="m 4120.5679,4933.828 -27.8199,83.6742 67.1214,-29.1747 -18.7077,61.2425 61.2587,-32.6087 -20.173,60.3839 63.4829,-29.4532 0.1352,46.5927 c -118.4312,-17.5488 -249.2517,-28.5062 -420.0474,-18.1964 l 128.9859,67.225 -4.1519,-39.4132 95.583,48.7428 -14.4255,-40.2237 77.0321,40.1989 c -68.9306,17.5485 -136.093,40.7339 -200.2044,73.6436 l 210.6685,13.3423 -71.8454,-27.3566 154.2378,9.1118 -80.6875,-25.1354 152.0269,9.6674 -72.6516,-25.9266 154.655,1.6433 -83.1061,-20.8459 30.9202,-1.0792 28.9581,9.1649 -8.017,-9.8959 24.593,-0.8586 27.595,13.1853 -1.1517,-14.1082 38.4007,-1.3402 41.4277,1.446 -1.2802,13.4261 26.5454,-12.544 25.3536,0.8845 -7.694,9.3238 27.5724,-8.63 29.3755,1.0255 -83.108,20.8459 154.6571,-1.6433 -72.6516,25.9266 152.0249,-9.6674 -80.6874,25.1354 154.2376,-9.1118 -71.8454,27.3566 210.6685,-13.3423 c -63.4581,-32.5746 -129.9028,-55.6248 -198.0953,-73.1087 l 78.6219,-40.5714 -14.9749,40.1918 96.2496,-48.5372 -4.692,39.4036 129.9034,-66.948 c -173.9467,-10.8817 -306.6633,0.4212 -427.1504,18.3051 l 0.1314,-45.2331 63.4848,29.4533 -20.173,-60.3839 61.2587,32.6086 -18.7076,-61.2424 67.1192,29.1747 -27.8178,-83.6742 c -161.9415,46.564 -234.9523,98.4976 -290.1416,151.5072 -55.4502,-53.7276 -128.2272,-106.4087 -292.2776,-153.5791 z m 175.6906,141.8168 8.2966,28.1579 c -13.4626,-2.264 -27.0341,-4.4704 -40.7536,-6.5977 z m 231.0358,2.0718 30.8013,20.4602 c -13.0045,2.0237 -25.8824,4.1155 -38.6709,6.2553 z m 185.1465,44.8216 -5.5492,27.5934 c -13.4932,-3.3141 -27.051,-6.4242 -40.6648,-9.3546 z m -594.8487,0.023 44.6109,17.7978 c -13.2491,2.8344 -26.4466,5.8352 -39.5829,9.0292 z m 509.5088,5.4693 -2.751,4.2909 c -2.2804,-0.4325 -4.5613,-0.8628 -6.8445,-1.2873 z m -424.2444,0.205 7.8375,2.4803 c -1.8764,0.3474 -3.7518,0.6979 -5.6264,1.0505 z"
       style="opacity:0.2;fill:#000000;fill-rule:evenodd;stroke:none;stroke-width:0.53259373px;stroke-linecap:butt;stroke-linejoin:miter;stroke-opacity:1" />
    <rect
       style="opacity:1;fill:#a05a2c;fill-opacity:1;stroke:none;stroke-width:5;stroke-linecap:round;stroke-linejoin:round;stroke-miterlimit:4;stroke-dasharray:none"
       id="rect4586"
       width="105.66898"
       height="757.56903"
       x="4362.4956"
       y="4365.5229" />
    <ellipse
       ry="190.74245"
       rx="547.87726"
       cy="5083.3472"
       cx="303.49179"
       id="ellipse4588"
       style="opacity:0.2;fill:#000000;fill-opacity:1;stroke:none;stroke-width:5;stroke-linecap:round;stroke-linejoin:round;stroke-miterlimit:4;stroke-dasharray:none" />
    <ellipse
       style="opacity:0.2;fill:#000000;fill-opacity:1;stroke:none;stroke-width:5;stroke-linecap:round;stroke-linejoin:round;stroke-miterlimit:4;stroke-dasharray:none"
       id="ellipse4590"
       cx="3111.8699"
       cy="5083.3472"
       rx="361.19315"
       ry="125.80885" />
    <rect
       y="4646.1558"
       x="194.08522"
       height="439.37097"
       width="260.3486"
       id="rect4592"
       style="opacity:1;fill:#a05a2c;fill-opacity:1;stroke:none;stroke-width:5;stroke-linecap:round;stroke-linejoin:round;stroke-miterlimit:4;stroke-dasharray:none" />
    <path
       inkscape:connector-curvature="0"
       id="path4594"
       d="m 334.36011,3695.4273 a 350.52292,350.52292 0 0 0 -350.52344,350.5215 350.52292,350.52292 0 0 0 21.1191399,118.8828 350.52292,350.52292 0 0 0 -265.5742199,339.7265 350.52292,350.52292 0 0 0 350.52149,350.5235 350.52292,350.52292 0 0 0 234.33984,-90.4004 350.52292,350.52292 0 0 0 234.37109,90.4004 350.52292,350.52292 0 0 0 350.52344,-350.5235 350.52292,350.52292 0 0 0 -247.23828,-334.9453 350.52292,350.52292 0 0 0 22.98438,-123.664 350.52292,350.52292 0 0 0 -350.52344,-350.5215 z"
       style="opacity:1;fill:#008000;fill-opacity:1;stroke:none;stroke-width:10;stroke-linecap:round;stroke-linejoin:round;stroke-miterlimit:4;stroke-dasharray:none" />
    <path
       inkscape:connector-curvature="0"
       id="path4596"
       d="m -83.963211,5363.9549 c 30.6532,492.3089 97.8183,1003.051 -105.515639,1505.1094 61.85434,-96.1368 154.811139,-153.5528 256.242139,-178.1875 l 12.5625,158.7851 169.884801,-116.8613 61.2793,-42.1523 c 100.6598,23.1963 192.0423,74.4625 251.6289,147.9043 -271.2823,-369.9044 -153.937,-954.2254 -152.4961,-1474.5977 l -493.585901,0 z M 562.11879,6838.5526 c 4.5258,6.1711 9.152,12.2854 13.8965,18.3359 -4.4106,-6.2588 -9.0536,-12.3669 -13.8965,-18.3359 z"
       style="opacity:1;fill:#a05a2c;fill-opacity:1;stroke:none;stroke-width:5;stroke-linecap:round;stroke-linejoin:round;stroke-miterlimit:4;stroke-dasharray:none" />
    <path
       sodipodi:nodetypes="ccccccccccccccccccccccccccccc"
       inkscape:connector-curvature="0"
       id="path4598"
       d="m 1350.0409,5299.4467 c -91.1373,74.4863 -127.9957,101.1523 -281.4866,209.7718 l -24.6057,97.5365 -180.9268,-115.0347 -43.7488,68.809 169.1595,107.5512 90.2827,265.3984 -0.4798,-1.2334 c 31.05,307.7952 37.3903,617.4922 -71.2175,936.0303 54.3373,-65.848 115.0595,-99.9839 174.789,-111.4033 l 100.5222,115.0266 20.971,-108.6712 c 64.2641,18.7975 120.0338,60.26 155.3548,109.8516 -159.8043,-313.4329 -101.2735,-626.8648 -65.3361,-940.2976 l 116.6535,-233.3103 -0.1545,0.3142 143.8907,-282.9814 -94.5428,-47.2722 -104.945,209.8899 -141.3949,-137.2958 91.6488,-68.1795 z m -123.1282,206.5936 176.0986,170.994 -102.0837,204.1673 c -44.5786,22.3671 -88.4775,31.144 -131.233,17.0486 l -63.039,-205.2661 30.2727,-120.0004 z"
       style="opacity:1;fill:#a05a2c;fill-opacity:1;stroke:none;stroke-width:5;stroke-linecap:round;stroke-linejoin:round;stroke-miterlimit:4;stroke-dasharray:none" />
    <path
       style="opacity:0.2;fill:#000000;fill-opacity:1;stroke:none;stroke-width:5;stroke-linecap:round;stroke-linejoin:round;stroke-miterlimit:4;stroke-dasharray:none"
       d="m 1807.2904,4916.43 a 118.00265,41.108199 0 0 0 -113.0895,29.4479 450.27324,143.05653 0 0 0 -26.6724,1.9025 80.738648,36.175216 0 0 0 -65.189,-14.9069 80.738648,36.175216 0 0 0 -80.7043,35.8762 99.370647,36.175216 0 0 0 -55.9298,-6.2783 99.370647,36.175216 0 0 0 -99.3707,36.175 99.370647,36.175216 0 0 0 8.9169,14.8689 43.47466,18.909772 0 0 0 -39.9707,18.8396 43.47466,18.909772 0 0 0 10.6966,12.3866 51.237988,18.909772 0 0 0 -2.9337,-0.054 51.237988,18.909772 0 0 0 -51.2378,18.909 51.237988,18.909772 0 0 0 44.0265,18.6985 450.27324,143.05653 0 0 0 -0.3086,1.9573 31.053329,19.731935 0 0 0 -28.192,19.6309 31.053329,19.731935 0 0 0 25.5566,19.4037 29.500661,9.0438035 0 0 0 -3.8191,4.4385 29.500661,9.0438035 0 0 0 19.1314,8.4562 31.053329,27.131411 0 0 0 -0.4988,4.6982 31.053329,27.131411 0 0 0 31.0538,27.1323 31.053329,27.131411 0 0 0 0.9743,-0.03 46.579995,16.44328 0 0 0 45.6052,13.1846 46.579995,16.44328 0 0 0 15.8471,-0.9972 45.027324,30.420067 0 0 0 -0.3212,3.4638 45.027324,30.420067 0 0 0 45.0282,30.4204 45.027324,30.420067 0 0 0 8.9508,-0.6401 59.00132,23.842756 0 0 0 42.2869,7.2173 59.00132,23.842756 0 0 0 8.3019,-0.2619 57.448657,20.554101 0 0 0 55.357,15.0602 57.448657,20.554101 0 0 0 34.1797,-4.0613 62.106659,20.554101 0 0 0 54.3234,10.6383 62.106659,20.554101 0 0 0 43.2867,-5.8147 41.921994,19.731935 0 0 0 29.6884,5.8147 41.921994,19.731935 0 0 0 22.6717,-3.1344 65.211987,28.775741 0 0 0 40.9872,6.4236 65.211987,28.775741 0 0 0 52.2439,-11.6109 71.422653,32.886561 0 0 0 37.8105,5.0339 71.422653,32.886561 0 0 0 56.1307,-12.6104 54.343325,22.198429 0 0 0 26.1608,2.7441 54.343325,22.198429 0 0 0 52.546,-16.6472 37.263993,24.664921 0 0 0 27.2052,-11.4656 65.211987,15.621116 0 0 0 8.7519,0.1589 65.211987,15.621116 0 0 0 65.0728,-14.9617 59.00132,26.309247 0 0 0 6.3489,0.1633 59.00132,26.309247 0 0 0 59.0006,-26.3097 59.00132,26.309247 0 0 0 -1.8556,-6.4519 54.343325,25.487082 0 0 0 36.0141,-23.9675 54.343325,25.487082 0 0 0 -8.1094,-13.358 45.027324,27.131411 0 0 0 11.2162,-17.885 45.027324,27.131411 0 0 0 -14.8072,-20.0695 43.47466,34.530888 0 0 0 11.7004,-23.5053 43.47466,34.530888 0 0 0 -37.779,-34.1952 57.448657,30.420067 0 0 0 -56.9334,-26.6445 57.448657,30.420067 0 0 0 -21.1627,2.1488 450.27324,143.05653 0 0 0 -1.5004,-0.5417 57.448657,28.775741 0 0 0 5.5837,-12.2949 57.448657,28.775741 0 0 0 -57.4471,-28.7764 57.448657,28.775741 0 0 0 -35.7437,6.2481 83.843988,31.242231 0 0 0 -83.8111,-30.9128 83.843988,31.242231 0 0 0 -53.5245,7.2297 118.00265,41.108199 0 0 0 -101.7443,-20.384 z"
       id="path4600"
       inkscape:connector-curvature="0" />
    <rect
       style="opacity:1;fill:#a05a2c;fill-opacity:1;stroke:none;stroke-width:5;stroke-linecap:round;stroke-linejoin:round;stroke-miterlimit:4;stroke-dasharray:none"
       id="rect4602"
       width="260.3486"
       height="757.56903"
       x="1638.3752"
       y="4314.6997" />
    <path
       style="opacity:1;fill:#008000;fill-opacity:1;stroke:none;stroke-width:5;stroke-linecap:round;stroke-linejoin:round;stroke-miterlimit:4;stroke-dasharray:none"
       d="m 1802.0933,3713.4376 c -18.5044,0.3409 -35.6347,7.4808 -45.9279,19.1428 -15.2141,-10.3714 -34.2906,-15.851 -53.8381,-15.4646 -28.5176,0.6043 -54.6493,13.587 -69.1266,34.3433 -9.6464,-2.2032 -19.837,-3.2631 -30.0747,-3.1281 -29.2202,0.4696 -55.9851,10.5938 -70.7622,26.7668 -11.9065,-11.5892 -28.3027,-17.9555 -45.2972,-17.5879 -28.4498,0.6732 -52.7022,19.8991 -58.6385,46.4854 -20.9507,3.0063 -37.0883,17.627 -39.5983,35.8762 -13.8296,7.2878 -22.7583,25.0196 -22.4139,44.5124 l 0,0.011 c 0.053,2.4083 0.2478,4.8076 0.5831,7.1767 -0.231,-0.01 -0.462,-0.013 -0.6931,-0.019 -23.8251,0.5506 -42.6832,19.8997 -42.1214,43.2179 l 0,0.011 c 0.063,1.8795 0.254,3.7527 0.5721,5.6072 -9.8591,8.0044 -15.5357,20.5906 -15.2629,33.8409 l 0,0.011 c 0.077,2.7949 0.4185,5.5742 1.0195,8.2952 -23.4729,4.739 -40.1324,25.2778 -39.5764,48.792 l 0,0.011 c 0.1513,5.3911 1.2146,10.7201 3.1465,15.7689 -12.5673,7.9704 -20.014,21.7478 -19.6745,36.4006 l 0,0.011 c 0.1654,6.4839 1.8544,12.8434 4.936,18.5853 -8.1453,8.1968 -12.5447,18.9738 -12.2814,30.0857 l 0,0.011 c 0.284,10.2415 4.5126,20.0559 11.9294,27.6873 -3.1365,6.3565 -4.7222,13.5803 -4.5877,20.8994 l 0,0.011 c 0.1228,5.3722 1.17,10.6621 3.0804,15.5599 -13.7946,9.363 -21.8171,24.5668 -21.4384,40.6288 l 0,0.015 c 0.3574,13.2701 6.4274,25.8259 16.8031,34.7577 -7.5805,8.8993 -11.576,19.983 -11.295,31.3325 l 0,0.015 c 0.4967,18.3839 12.0969,34.9371 29.983,42.7852 -6.6261,9.6242 -10.0442,21.0385 -9.7804,32.66 l 0,0.015 c 0.5193,20.7788 12.6919,39.5657 31.6186,48.7994 -1.6008,4.9486 -2.3572,10.1071 -2.2407,15.2812 l 0,0.015 c 0.6379,24.7503 20.8096,45.1019 46.8668,47.2848 -0.7144,3.8165 -1.0365,7.7029 -0.9608,11.592 l 0,0.015 c 12.9078,34.9824 58.4265,91.238 90.9647,91.4269 2.9498,-0.086 5.8825,-0.4802 8.75,-1.1772 -0.4195,2.5743 -0.606,5.1776 -0.5574,7.7818 l 0,0.011 c 0.5985,22.5542 18.4805,41.355 42.1837,44.351 6.9786,21.0931 33.6602,35.8261 63.9962,35.3371 14.3686,-0.248 28.2061,-3.9292 39.3013,-10.4551 9.903,9.9835 30.7057,16.2195 53.277,15.9706 9.1093,-0.1074 18.0382,-1.2722 26.0591,-3.3995 4.1133,17.2022 23.2546,29.5132 45.2495,29.1029 11.3486,-0.2262 22.1702,-3.8587 30.2947,-10.1692 10.3028,6.7452 23.8735,10.3895 37.8675,10.1692 13.3615,-0.2433 26.1249,-3.9945 35.8358,-10.5322 10.3606,9.3092 25.0573,14.4829 40.3465,14.203 12.3866,-0.2565 24.2774,-4.0796 33.6245,-10.8109 7.5049,9.6074 17.3803,14.7961 27.5627,14.4818 16.6778,-0.5829 31.2929,-15.7309 36.5105,-37.8418 8.0016,0.7944 16.4186,1.1754 24.871,1.1258 40.0441,-0.2772 71.7357,-9.9523 70.7878,-21.6107 -0.2329,-2.7064 -2.2511,-5.3744 -5.9445,-7.8588 34.9086,-1.2183 61.8445,-17.3533 61.0368,-36.562 -0.2492,-5.1349 -2.5067,-10.1802 -6.6193,-14.7934 0.4558,0.013 0.9118,0.021 1.3679,0.026 26.8653,-0.4341 48.1266,-15.5781 47.4902,-33.8263 -0.2235,-6.3492 -3.1352,-12.5202 -8.3869,-17.7748 18.7366,-1.4314 32.686,-11.5068 32.2603,-23.3014 -0.169,-4.0473 -2.0478,-7.9947 -5.4458,-11.4417 25.0125,-0.8441 44.5887,-17.9651 44.0063,-38.4872 -0.2129,-7.2553 -2.979,-14.3055 -7.9651,-20.3016 0.9453,0.043 1.8917,0.066 2.8384,0.066 29.9077,-0.6149 53.5764,-22.0704 52.8663,-47.9229 -0.341,-11.8406 -5.8603,-23.1296 -15.4462,-31.5929 16.1085,-6.4555 26.851,-24.9354 26.4661,-45.5282 -0.1461,-6.6977 -1.4742,-13.2794 -3.8946,-19.3004 16.3148,-7.3141 26.3548,-21.833 25.9271,-37.4934 -0.2587,-8.502 -3.6012,-16.729 -9.5714,-23.5581 16.4097,-8.0951 26.5268,-24.2751 26.0995,-41.74 -0.4615,-17.3983 -11.3121,-33.0543 -28.0211,-40.4308 2.8738,-7.2229 4.2936,-15.1131 4.1513,-23.0703 -0.3921,-18.1665 -8.8574,-34.7958 -22.3626,-43.9294 3.9829,-8.3782 6.0033,-17.9658 5.8345,-27.6873 -0.4051,-20.0044 -9.9807,-37.9713 -24.6692,-46.2873 4.3043,-9.0916 6.488,-19.4869 6.3076,-30.027 -0.5776,-29.4883 -19.2254,-53.5445 -42.9649,-55.426 0.548,-3.9285 0.7909,-7.9027 0.7262,-11.878 -0.7631,-35.5514 -25.5844,-64.6046 -57.278,-67.0437 0.277,-2.3393 0.3945,-4.6921 0.3521,-7.0447 -0.8179,-31.4272 -29.4213,-56.3004 -63.8899,-55.558 -3.3246,0.08 -6.6368,0.403 -9.9051,0.9645 -6.8803,-4.3753 -15.1204,-6.6453 -23.5214,-6.48 -2.5051,0.064 -4.9978,0.3438 -7.4444,0.8362 0.085,-1.2548 0.1177,-2.5125 0.099,-3.7699 -0.6009,-25.3445 -21.6323,-45.4039 -46.9768,-44.8058 -2.9311,0.082 -5.8476,0.4439 -8.7096,1.0818 -10.1442,-9.2367 -23.5468,-14.2329 -37.3724,-13.9316 -7.4563,0.1956 -14.7877,1.9285 -21.5191,5.0864 -11.9559,-13.6342 -35.2586,-21.9823 -60.3437,-21.6181 -9.5408,0.1571 -18.9165,1.5752 -27.4966,4.1585 -9.9283,-5.2861 -21.8249,-8.0293 -33.9546,-7.8294 z"
       id="path4604"
       inkscape:connector-curvature="0"
       sodipodi:nodetypes="cccccccccccccccccccccccccccccccccccccccccccccccccccccccccccccccccccccccccccccccccccccccccccccccccccccccc" />
    <rect
       y="4314.6997"
       x="3055.7368"
       height="757.56903"
       width="105.66898"
       id="rect4606"
       style="opacity:1;fill:#a05a2c;fill-opacity:1;stroke:none;stroke-width:5;stroke-linecap:round;stroke-linejoin:round;stroke-miterlimit:4;stroke-dasharray:none" />
    <g
       style="fill:#008000;stroke:none"
       id="g4608"
       transform="matrix(1.8776038,0,0,1.8776038,695.67205,3353.7133)">
      <g
         style="fill:#008000"
         id="g4610">
        <g
           style="fill:#008000;fill-opacity:1"
           transform="matrix(0.6846074,0,0,0.6846074,424.06121,375.89834)"
           id="g4612">
          <path
             inkscape:connector-curvature="0"
             id="path4614"
             transform="matrix(0.77795496,0,0,0.77795496,-1160.624,-36.307486)"
             d="m 3108.5723,-452.91211 -49.9785,171.60938 -24.8926,85.47656 -32.252,51.66601 -107.1211,171.611332 100.3125,0 -11.8496,16.167969 -125.7793,171.609379 104.1074,0 -141.7343,168.21875 99.5703,0 -107.2149,207.33789 97.6446,0 -149.0723,245.71484 348.2598,0 348.2578,0 -149.0723,-245.71484 97.6445,0 -107.2148,-207.33789 99.5703,0 -141.7344,-168.21875 104.1075,0 -125.7793,-171.609379 -11.8496,-16.167969 100.3125,0 -107.1211,-171.611332 -32.252,-51.66796 -24.8926,-85.47461 -49.9765,-171.60938 z"
             style="opacity:1;fill:#008000;fill-opacity:1;stroke:none;stroke-width:5;stroke-linecap:round;stroke-linejoin:round;stroke-miterlimit:4;stroke-dasharray:none" />
        </g>
      </g>
    </g>
    <path
       inkscape:connector-curvature="0"
       id="path4616"
       d="m 4042.5632,5460.5558 a 109.0481,71.742171 0 0 0 -104.5078,51.3924 416.10457,249.66274 0 0 0 -24.6483,3.3204 74.611852,63.13311 0 0 0 -60.2423,-26.0157 74.611852,63.13311 0 0 0 -74.5802,62.6113 91.829976,63.13311 0 0 0 -51.6855,-10.9569 91.829976,63.13311 0 0 0 -91.83,63.1327 91.829976,63.13311 0 0 0 8.2402,25.9492 40.175616,33.001399 0 0 0 -36.9375,32.879 40.175616,33.001399 0 0 0 9.8848,21.6172 47.349829,33.001399 0 0 0 -2.7109,-0.094 47.349829,33.001399 0 0 0 -47.3496,33 47.349829,33.001399 0 0 0 40.6856,32.6328 416.10457,249.66274 0 0 0 -0.2852,3.4159 28.696868,34.436241 0 0 0 -26.0527,34.2599 28.696868,34.436241 0 0 0 23.6171,33.8633 27.262024,15.783277 0 0 0 -3.5293,7.7461 27.262024,15.783277 0 0 0 17.6797,14.7577 28.696868,47.349829 0 0 0 -0.461,8.1994 28.696868,47.349829 0 0 0 28.6973,47.3514 28.696868,47.349829 0 0 0 0.9005,-0.053 43.045304,28.696868 0 0 0 42.1445,23.0098 43.045304,28.696868 0 0 0 14.6444,-1.7403 41.610457,53.089206 0 0 0 -0.2967,6.0449 41.610457,53.089206 0 0 0 41.6113,53.0898 41.610457,53.089206 0 0 0 8.2714,-1.1172 54.524047,41.610457 0 0 0 39.0782,12.5958 54.524047,41.610457 0 0 0 7.6719,-0.4571 53.089206,35.871085 0 0 0 51.1562,26.2833 53.089206,35.871085 0 0 0 31.586,-7.0879 57.393739,35.871085 0 0 0 50.2009,18.5663 57.393739,35.871085 0 0 0 40.0022,-10.1483 38.740774,34.436241 0 0 0 27.4354,10.1483 38.740774,34.436241 0 0 0 20.9512,-5.4706 60.263421,50.21952 0 0 0 37.8771,11.2108 60.263421,50.21952 0 0 0 48.2792,-20.2635 66.002796,57.393739 0 0 0 34.9415,8.7851 66.002796,57.393739 0 0 0 51.871,-22.0079 50.21952,38.740774 0 0 0 24.1757,4.7892 50.21952,38.740774 0 0 0 48.5587,-29.0528 34.436241,43.045304 0 0 0 25.1408,-20.0098 60.263421,27.262024 0 0 0 8.0878,0.2774 60.263421,27.262024 0 0 0 60.1347,-26.1113 54.524047,45.914989 0 0 0 5.8672,0.2852 54.524047,45.914989 0 0 0 54.5233,-45.9161 54.524047,45.914989 0 0 0 -1.7148,-11.2598 50.21952,44.480145 0 0 0 33.2813,-41.8281 50.21952,44.480145 0 0 0 -7.4941,-23.3125 41.610457,47.349829 0 0 0 10.3651,-31.2129 41.610457,47.349829 0 0 0 -13.6836,-35.0254 40.175616,60.263421 0 0 0 10.8126,-41.0215 40.175616,60.263421 0 0 0 -34.9122,-59.6776 53.089206,53.089206 0 0 0 -52.6131,-46.5 53.089206,53.089206 0 0 0 -19.5567,3.75 416.10457,249.66274 0 0 0 -1.3866,-0.9454 53.089206,50.21952 0 0 0 5.16,-21.4571 53.089206,50.21952 0 0 0 -53.0877,-50.2206 53.089206,50.21952 0 0 0 -33.0314,10.9042 77.481546,54.524047 0 0 0 -77.4513,-53.9492 77.481546,54.524047 0 0 0 -49.4629,12.6173 109.0481,71.742171 0 0 0 -94.0234,-35.5742 z"
       style="opacity:1;fill:#008000;fill-opacity:1;stroke:none;stroke-width:5;stroke-linecap:round;stroke-linejoin:round;stroke-miterlimit:4;stroke-dasharray:none" />
    <g
       transform="translate(0,4012.831)"
       id="g4618"
       style="fill:#008000;fill-opacity:1">
      <g
         id="g4620"
         style="fill:#008000;fill-opacity:1">
        <path
           sodipodi:nodetypes="ccccccccccccccc"
           inkscape:connector-curvature="0"
           id="path4622"
           d="m 4421.4409,290.59046 c 172.5133,-98.77832 343.5256,-200.139218 603.6934,-148.09381 l -134.3753,221.45412 4.8521,-130.34091 -99.5607,160.55527 15.4901,-132.9505 -96.9013,159.90279 8.0275,-127.62926 -113.2929,142.98058 25.0155,-124.81559 -133.9721,134.09122 25.9665,-100.61497 -71.6927,108.34167 3.1437,-105.48788 z"
           style="fill:#008000;fill-opacity:1;fill-rule:evenodd;stroke:none;stroke-width:0.53259373px;stroke-linecap:butt;stroke-linejoin:miter;stroke-opacity:1" />
        <path
           style="fill:#008000;fill-opacity:1;fill-rule:evenodd;stroke:none;stroke-width:0.53259373px;stroke-linecap:butt;stroke-linejoin:miter;stroke-opacity:1"
           d="M 4408.5769,292.72655 C 4236.489,192.76813 4065.913,90.23742 3805.5262,140.50014 l 133.4253,222.37121 -4.294,-130.37225 98.8719,161.23484 -14.9207,-133.05465 96.2154,160.56415 -7.481,-127.68239 112.6792,143.75446 -24.481,-124.98509 133.3961,135.00685 -25.5353,-100.79133 71.2279,108.83112 -2.6921,-105.50785 z"
           id="path4624"
           inkscape:connector-curvature="0"
           sodipodi:nodetypes="ccccccccccccccc" />
        <path
           style="fill:#008000;fill-opacity:1;fill-rule:evenodd;stroke:none;stroke-width:0.53259373px;stroke-linecap:butt;stroke-linejoin:miter;stroke-opacity:1"
           d="m 4368.797,320.80381 c 66.7678,-224.150956 131.0307,-448.7856 344.0908,-644.69063 l 28.776,276.783493 -69.4302,-96.504913 19.3511,202.581529 -63.3669,-107.865184 20.8668,199.741485 -65.6688,-97.427681 -0.184,202.437231 -52.0838,-110.63309 -19.775,214.64789 -37.8832,-94.37116 9.869,140.7345 -56.7451,-77.40298 z"
           id="path4626"
           inkscape:connector-curvature="0"
           sodipodi:nodetypes="ccccccccccccccc" />
        <path
           sodipodi:nodetypes="ccccccccccccccc"
           inkscape:connector-curvature="0"
           id="path4628"
           d="M 4454.5106,313.95038 C 4387.7428,89.799432 4323.4799,-134.83521 4110.4198,-330.74024 l -28.776,276.783471 69.4302,-96.504911 -19.3511,202.581565 63.3668,-107.865203 -20.8667,199.741468 65.6688,-97.427682 0.184,202.437212 52.0838,-110.63305 19.7749,214.64787 37.8833,-94.37114 -9.869,140.73447 56.7451,-77.40295 z"
           style="fill:#008000;fill-opacity:1;fill-rule:evenodd;stroke:none;stroke-width:0.53259373px;stroke-linecap:butt;stroke-linejoin:miter;stroke-opacity:1" />
        <path
           style="fill:#008000;fill-opacity:1;fill-rule:evenodd;stroke:none;stroke-width:0.53259373px;stroke-linecap:butt;stroke-linejoin:miter;stroke-opacity:1"
           d="m 4416.0298,220.22299 c 179.0031,78.14739 358.318,153.11382 519.0964,417.03066 l -217.9199,44.13619 74.318,-90.4929 -159.5464,30.14112 83.4651,-83.1442 -157.2596,31.97816 75.1524,-85.763 -159.9792,5.43669 85.9682,-68.95498 -170.1772,-18.99369 73.5151,-50.5438 -110.9378,16.41982 59.5779,-73.91879 z"
           id="path4630"
           inkscape:connector-curvature="0"
           sodipodi:nodetypes="ccccccccccccccc" />
        <path
           sodipodi:nodetypes="ccccccccccccccc"
           inkscape:connector-curvature="0"
           id="path4632"
           d="m 4410.2928,220.22299 c -179.0029,78.14739 -358.318,153.11382 -519.0962,417.03066 l 217.9197,44.13619 -74.3178,-90.4929 159.5462,30.14112 -83.4649,-83.1442 157.2594,31.97816 -75.1524,-85.763 159.9794,5.43669 -85.9684,-68.95498 170.1772,-18.99369 -73.5151,-50.5438 110.9378,16.41982 -59.5778,-73.91879 z"
           style="fill:#008000;fill-opacity:1;fill-rule:evenodd;stroke:none;stroke-width:0.53259373px;stroke-linecap:butt;stroke-linejoin:miter;stroke-opacity:1" />
      </g>
      <path
         style="opacity:1;fill:#008000;fill-opacity:1;stroke:none;stroke-width:5;stroke-linecap:round;stroke-linejoin:round;stroke-miterlimit:4;stroke-dasharray:none"
         d="m 4471.9182,369.52456 c 0,47.31308 -30.6048,65.10761 -65.0158,65.10759 -34.411,-6e-5 -59.5978,-17.79456 -59.5978,-65.10759 0,-47.31298 27.8956,-85.66779 62.3068,-85.66783 34.4111,-2e-5 62.3068,38.35479 62.3068,85.66783 z"
         id="path4634"
         inkscape:connector-curvature="0"
         sodipodi:nodetypes="sssss" />
    </g>
    <path
       style="opacity:1;fill:#a05a2c;fill-opacity:1;stroke:none;stroke-width:5;stroke-linecap:round;stroke-linejoin:round;stroke-miterlimit:4;stroke-dasharray:none"
       d="m 4224.7618,6085.0229 -40.5176,30.4629 -163.4121,145.127 -122.0703,-121.1641 54.2851,89.1973 271.0528,374.1445 76.0878,-64.8906 -245.4863,-243.668 170.0606,-209.209 z"
       id="path4636"
       inkscape:connector-curvature="0" />
    <g
       transform="translate(0,4012.831)"
       id="g4638"
       style="fill:#a05a2c;fill-opacity:1;stroke:none">
      <g
         transform="matrix(0.74738261,-1.0744986,0.84013324,0.95587402,-2993.6924,4353.0178)"
         id="g4640"
         style="fill:#a05a2c;fill-opacity:1;stroke:none" />
      <path
         style="opacity:1;fill:#a05a2c;fill-opacity:1;stroke:none;stroke-width:5;stroke-linecap:round;stroke-linejoin:round;stroke-miterlimit:4;stroke-dasharray:none"
         d="m 2128.4327,1418.5615 213.6148,54.4563 c 154.0218,598.2165 28.9518,1164.1103 22.9474,1156.5429 l 103.5387,130.4883 -48.9385,61.8775 -126.0306,-149.1297 c -67.5908,-79.9791 -161.6531,-74.9617 -224.0704,-1.8199 l -106.4281,124.7145 -55.9292,-35.2561 105.6334,-139.3498 c 21.5354,-28.4092 23.5701,-344.8476 161.5171,-629.1071 82.366,-169.727 2.0902,-391.2286 -45.8546,-573.4169 z"
         id="path4642"
         inkscape:connector-curvature="0"
         sodipodi:nodetypes="ccsccssccssc" />
    </g>
    <text
       sodipodi:linespacing="125%"
       id="text4692"
       y="-1005.6744"
       x="268.95178"
       style="font-style:normal;font-variant:normal;font-weight:normal;font-stretch:normal;font-size:40px;line-height:125%;font-family:'Comic Sans MS';-inkscape-font-specification:'Comic Sans MS';letter-spacing:0px;word-spacing:0px;fill:#000000;fill-opacity:1;stroke:none;stroke-width:1px;stroke-linecap:butt;stroke-linejoin:miter;stroke-opacity:1"
       xml:space="preserve"><tspan
         y="-1005.6744"
         x="268.95178"
         id="tspan4694"
         sodipodi:role="line" /></text>
    <text
       xml:space="preserve"
       style="font-style:normal;font-variant:normal;font-weight:normal;font-stretch:normal;font-size:364.69836426px;line-height:125%;font-family:'Comic Sans MS';-inkscape-font-specification:'Comic Sans MS';letter-spacing:0px;word-spacing:0px;fill:#000000;fill-opacity:1;stroke:none;stroke-width:1px;stroke-linecap:butt;stroke-linejoin:miter;stroke-opacity:1"
       x="1756.036"
       y="-761.41687"
       id="text4716"
       sodipodi:linespacing="125%"><tspan
         sodipodi:role="line"
         id="tspan4718"
         x="1756.036"
         y="-761.41687">Normal</tspan></text>
    <path
       sodipodi:nodetypes="cccccccccccccccccc"
       inkscape:connector-curvature="0"
       id="path4486"
       d="m 3024.9947,1385.8401 33.1456,612.0893 -152.4699,-79.5495 -144.7359,118.2194 260.7456,85.0738 -160.2038,457.4097 -113.8,169.0427 65.1864,41.9845 111.5903,-166.833 c 32.409,-50.7615 70.2868,-63.726 97.2271,-61.8719 l -82.864,199.9786 85.0737,23.202 90.5981,-202.1884 c 110.2101,94.3379 130.5846,144.0087 185.6155,227.6 l 65.1864,-43.0893 -121.5339,-181.1961 c 111.1751,-395.2181 110.87,-804.6926 -13.2583,-1149.0485 z"
       style="fill:url(#linearGradient4494);fill-opacity:1;fill-rule:evenodd;stroke:none;stroke-width:1px;stroke-linecap:butt;stroke-linejoin:miter;stroke-opacity:1" />
    <path
       style="fill:#a05a2c;fill-opacity:1;fill-rule:evenodd;stroke:none;stroke-width:1px;stroke-linecap:butt;stroke-linejoin:miter;stroke-opacity:1"
       d="m 3024.9947,5398.6711 33.1456,612.0893 -152.4699,-79.5495 -144.7359,118.2194 260.7456,85.0738 -160.2038,457.4097 -113.8,169.0427 65.1864,41.9845 111.5903,-166.833 c 32.409,-50.7615 70.2868,-63.726 97.2271,-61.8719 l -82.864,199.9786 85.0737,23.202 90.5981,-202.1884 c 110.2101,94.3379 130.5846,144.0087 185.6155,227.6 l 65.1864,-43.0893 -121.5339,-181.1961 c 111.1751,-395.2181 110.87,-804.6926 -13.2583,-1149.0485 z"
       id="path4644"
       inkscape:connector-curvature="0"
       sodipodi:nodetypes="cccccccccccccccccc" />
  </g>
</svg>
