<svg version="1.2" baseProfile="tiny" width="122mm" height="47.6mm" viewBox="0 0 12200 4760" preserveAspectRatio="xMidYMid" fill-rule="evenodd" stroke-width="28.222" stroke-linejoin="round" xmlns="http://www.w3.org/2000/svg" xmlns:ooo="http://xml.openoffice.org/svg/export" xmlns:xlink="http://www.w3.org/1999/xlink" xml:space="preserve">
 <defs class="ClipPathGroup">
  <clipPath id="presentation_clip_path" clipPathUnits="userSpaceOnUse">
   <rect x="0" y="0" width="12200" height="4760"/>
  </clipPath>
 </defs>
 <defs class="TextShapeIndex">
  <g ooo:slide="id1" ooo:id-list="id3 id4 id5 id6 id7 id8 id9 id10 id11 id12"/>
 </defs>
 <defs class="EmbeddedBulletChars">
  <g id="bullet-char-template(57356)" transform="scale(0.00048828125,-0.00048828125)">
   <path d="M 580,1141 L 1163,571 580,0 -4,571 580,1141 Z"/>
  </g>
  <g id="bullet-char-template(57354)" transform="scale(0.00048828125,-0.00048828125)">
   <path d="M 8,1128 L 1137,1128 1137,0 8,0 8,1128 Z"/>
  </g>
  <g id="bullet-char-template(10146)" transform="scale(0.00048828125,-0.00048828125)">
   <path d="M 174,0 L 602,739 174,1481 1456,739 174,0 Z M 1358,739 L 309,1346 659,739 1358,739 Z"/>
  </g>
  <g id="bullet-char-template(10132)" transform="scale(0.00048828125,-0.00048828125)">
   <path d="M 2015,739 L 1276,0 717,0 1260,543 174,543 174,936 1260,936 717,1481 1274,1481 2015,739 Z"/>
  </g>
  <g id="bullet-char-template(10007)" transform="scale(0.00048828125,-0.00048828125)">
   <path d="M 0,-2 C -7,14 -16,27 -25,37 L 356,567 C 262,823 215,952 215,954 215,979 228,992 255,992 264,992 276,990 289,987 310,991 331,999 354,1012 L 381,999 492,748 772,1049 836,1024 860,1049 C 881,1039 901,1025 922,1006 886,937 835,863 770,784 769,783 710,716 594,584 L 774,223 C 774,196 753,168 711,139 L 727,119 C 717,90 699,76 672,76 641,76 570,178 457,381 L 164,-76 C 142,-110 111,-127 72,-127 30,-127 9,-110 8,-76 1,-67 -2,-52 -2,-32 -2,-23 -1,-13 0,-2 Z"/>
  </g>
  <g id="bullet-char-template(10004)" transform="scale(0.00048828125,-0.00048828125)">
   <path d="M 285,-33 C 182,-33 111,30 74,156 52,228 41,333 41,471 41,549 55,616 82,672 116,743 169,778 240,778 293,778 328,747 346,684 L 369,508 C 377,444 397,411 428,410 L 1163,1116 C 1174,1127 1196,1133 1229,1133 1271,1133 1292,1118 1292,1087 L 1292,965 C 1292,929 1282,901 1262,881 L 442,47 C 390,-6 338,-33 285,-33 Z"/>
  </g>
  <g id="bullet-char-template(9679)" transform="scale(0.00048828125,-0.00048828125)">
   <path d="M 813,0 C 632,0 489,54 383,161 276,268 223,411 223,592 223,773 276,916 383,1023 489,1130 632,1184 813,1184 992,1184 1136,1130 1245,1023 1353,916 1407,772 1407,592 1407,412 1353,268 1245,161 1136,54 992,0 813,0 Z"/>
  </g>
  <g id="bullet-char-template(8226)" transform="scale(0.00048828125,-0.00048828125)">
   <path d="M 346,457 C 273,457 209,483 155,535 101,586 74,649 74,723 74,796 101,859 155,911 209,963 273,989 346,989 419,989 480,963 531,910 582,859 608,796 608,723 608,648 583,586 532,535 482,483 420,457 346,457 Z"/>
  </g>
  <g id="bullet-char-template(8211)" transform="scale(0.00048828125,-0.00048828125)">
   <path d="M -4,459 L 1135,459 1135,606 -4,606 -4,459 Z"/>
  </g>
 </defs>
 <defs class="TextEmbeddedBitmaps"/>
 <g>
  <g id="id2" class="Master_Slide">
   <g id="bg-id2" class="Background"/>
   <g id="bo-id2" class="BackgroundObjects"/>
  </g>
 </g>
 <g class="SlideGroup">
  <g>
   <g id="id1" class="Slide" clip-path="url(#presentation_clip_path)">
    <g class="Page">
     <g class="com.sun.star.drawing.ClosedBezierShape">
      <g id="id3">
       <path fill="rgb(153,102,51)" stroke="none" d="M 5555,600 C 7455,700 9555,105 9555,2000 9555,3896 8455,4800 5855,4700 3255,4600 2655,2600 3055,2300 3455,2000 3655,500 5555,600 Z M 555,200 L 555,200 Z M 9955,5000 L 9955,5000 Z"/>
       <path fill="none" stroke="rgb(52,101,164)" d="M 5555,600 C 7455,700 9555,105 9555,2000 9555,3896 8455,4800 5855,4700 3255,4600 2655,2600 3055,2300 3455,2000 3655,500 5555,600 Z"/>
       <path fill="none" stroke="rgb(52,101,164)" d="M 555,200 L 555,200 Z"/>
       <path fill="none" stroke="rgb(52,101,164)" d="M 9955,5000 L 9955,5000 Z"/>
      </g>
     </g>
     <g class="com.sun.star.drawing.ClosedBezierShape">
      <g id="id4">
       <path fill="rgb(255,102,0)" stroke="none" d="M 2555,1900 C 1855,1600 655,1368 655,1000 655,632 1455,800 2155,1000 2855,1200 3255,1732 3255,2100 3255,2468 3255,2200 2555,1900 Z M 3155,2500 L 3155,2500 Z M 1455,600 L 1455,600 Z"/>
       <path fill="none" stroke="rgb(52,101,164)" d="M 2555,1900 C 1855,1600 655,1368 655,1000 655,632 1455,800 2155,1000 2855,1200 3255,1732 3255,2100 3255,2468 3255,2200 2555,1900 Z"/>
       <path fill="none" stroke="rgb(52,101,164)" d="M 3155,2500 L 3155,2500 Z"/>
       <path fill="none" stroke="rgb(52,101,164)" d="M 1455,600 L 1455,600 Z"/>
      </g>
     </g>
     <g class="com.sun.star.drawing.ClosedBezierShape">
      <g id="id5">
       <path fill="rgb(0,0,204)" stroke="none" d="M 1956,2500 C 1256,2500 -244,2600 56,2300 356,2000 756,1700 1456,1700 2156,1700 3256,2032 3256,2400 3256,2768 2656,2500 1956,2500 Z M 3156,3200 L 3156,3200 Z M 1456,1300 L 1456,1300 Z"/>
       <path fill="none" stroke="rgb(52,101,164)" d="M 1956,2500 C 1256,2500 -244,2600 56,2300 356,2000 756,1700 1456,1700 2156,1700 3256,2032 3256,2400 3256,2768 2656,2500 1956,2500 Z"/>
       <path fill="none" stroke="rgb(52,101,164)" d="M 3156,3200 L 3156,3200 Z"/>
       <path fill="none" stroke="rgb(52,101,164)" d="M 1456,1300 L 1456,1300 Z"/>
      </g>
     </g>
     <g class="com.sun.star.drawing.ClosedBezierShape">
      <g id="id6">
       <path fill="rgb(255,51,51)" stroke="none" d="M 1256,3633 C 600,3933 612,4133 512,4033 412,3933 351,3433 1051,3033 1751,2633 3256,2165 3256,2533 3256,2901 1912,3333 1256,3633 Z M 3056,4333 L 3056,4333 Z M 1356,2433 L 1356,2433 Z"/>
       <path fill="none" stroke="rgb(52,101,164)" d="M 1256,3633 C 600,3933 612,4133 512,4033 412,3933 351,3433 1051,3033 1751,2633 3256,2165 3256,2533 3256,2901 1912,3333 1256,3633 Z"/>
       <path fill="none" stroke="rgb(52,101,164)" d="M 3056,4333 L 3056,4333 Z"/>
       <path fill="none" stroke="rgb(52,101,164)" d="M 1356,2433 L 1356,2433 Z"/>
      </g>
     </g>
     <g class="com.sun.star.drawing.ClosedBezierShape">
      <g id="id7">
       <path fill="rgb(255,211,32)" stroke="none" d="M 9655,3400 C 9855,3000 9955,2567 9955,2100 10522,2100 11088,2200 11655,2200 11655,2667 10222,3400 9655,3400 Z"/>
       <path fill="none" stroke="rgb(52,101,164)" d="M 9655,3400 C 9855,3000 9955,2567 9955,2100 10522,2100 11088,2200 11655,2200 11655,2667 10222,3400 9655,3400 Z"/>
      </g>
     </g>
     <g class="com.sun.star.drawing.ClosedBezierShape">
      <g id="id8">
       <path fill="rgb(255,211,32)" stroke="none" d="M 10555,1400 C 11150,1400 12455,2400 12155,2500 11855,2600 11755,2200 10955,2200 10155,2200 9818,2322 9756,1901 9693,1481 9960,1400 10555,1400 Z M 9455,1100 L 9455,1100 Z M 11955,2700 L 11955,2700 Z"/>
       <path fill="none" stroke="rgb(52,101,164)" d="M 10555,1400 C 11150,1400 12455,2400 12155,2500 11855,2600 11755,2200 10955,2200 10155,2200 9818,2322 9756,1901 9693,1481 9960,1400 10555,1400 Z"/>
       <path fill="none" stroke="rgb(52,101,164)" d="M 9455,1100 L 9455,1100 Z"/>
       <path fill="none" stroke="rgb(52,101,164)" d="M 11955,2700 L 11955,2700 Z"/>
      </g>
     </g>
     <g class="com.sun.star.drawing.ClosedBezierShape">
      <g id="id9">
       <path fill="rgb(255,255,255)" stroke="none" d="M 8055,500 C 9455,900 9555,900 10141,2200 10727,3500 8502,4700 7141,4700 6698,4704 6122,4798 5955,4700 5788,4602 6029,4311 6455,4000 6503,3837 5753,4043 5855,3800 5883,3692 6724,3218 6755,3100 6800,2927 5830,3102 5855,2900 5915,2689 6758,2125 6555,1900 6487,1825 5802,2205 5755,2200 5647,2075 6417,1451 6355,1300 6293,1149 5955,1300 5855,1200 6255,800 5555,500 5555,0 6255,600 7785,496 8055,500 Z M 4655,400 L 4655,400 Z M 10242,4501 L 10242,4501 Z"/>
       <path fill="none" stroke="rgb(52,101,164)" d="M 8055,500 C 9455,900 9555,900 10141,2200 10727,3500 8502,4700 7141,4700 6698,4704 6122,4798 5955,4700 5788,4602 6029,4311 6455,4000 6503,3837 5753,4043 5855,3800 5883,3692 6724,3218 6755,3100 6800,2927 5830,3102 5855,2900 5915,2689 6758,2125 6555,1900 6487,1825 5802,2205 5755,2200 5647,2075 6417,1451 6355,1300 6293,1149 5955,1300 5855,1200 6255,800 5555,500 5555,0 6255,600 7785,496 8055,500 Z"/>
       <path fill="none" stroke="rgb(52,101,164)" d="M 4655,400 L 4655,400 Z"/>
       <path fill="none" stroke="rgb(52,101,164)" d="M 10242,4501 L 10242,4501 Z"/>
      </g>
     </g>
     <g class="com.sun.star.drawing.CustomShape">
      <g id="id10">
       <path fill="rgb(0,0,0)" stroke="none" d="M 8855,1000 C 9195,1000 9455,1173 9455,1400 9455,1627 9195,1800 8855,1800 8515,1800 8255,1627 8255,1400 8255,1173 8515,1000 8855,1000 Z M 8255,1000 L 8255,1000 Z M 9456,1801 L 9456,1801 Z"/>
       <path fill="none" stroke="rgb(52,101,164)" d="M 8855,1000 C 9195,1000 9455,1173 9455,1400 9455,1627 9195,1800 8855,1800 8515,1800 8255,1627 8255,1400 8255,1173 8515,1000 8855,1000 Z"/>
       <path fill="none" stroke="rgb(52,101,164)" d="M 8255,1000 L 8255,1000 Z"/>
       <path fill="none" stroke="rgb(52,101,164)" d="M 9456,1801 L 9456,1801 Z"/>
      </g>
     </g>
     <g class="com.sun.star.drawing.CustomShape">
      <g id="id11">
       <path fill="rgb(255,255,255)" stroke="none" d="M 9005,1000 C 9203,1000 9355,1130 9355,1300 9355,1470 9203,1600 9005,1600 8807,1600 8655,1470 8655,1300 8655,1130 8807,1000 9005,1000 Z M 8655,1000 L 8655,1000 Z M 9356,1601 L 9356,1601 Z"/>
       <path fill="none" stroke="rgb(52,101,164)" d="M 9005,1000 C 9203,1000 9355,1130 9355,1300 9355,1470 9203,1600 9005,1600 8807,1600 8655,1470 8655,1300 8655,1130 8807,1000 9005,1000 Z"/>
       <path fill="none" stroke="rgb(52,101,164)" d="M 8655,1000 L 8655,1000 Z"/>
       <path fill="none" stroke="rgb(52,101,164)" d="M 9356,1601 L 9356,1601 Z"/>
      </g>
     </g>
     <g class="com.sun.star.drawing.ClosedBezierShape">
      <g id="id12">
       <path fill="rgb(0,0,0)" stroke="none" d="M 10546,1699 C 10631,1699 10646,1698 10646,1799 10646,1900 10746,2000 10746,1999 10662,2014 10446,1784 10446,1699 10446,1614 10461,1699 10546,1699 Z M 10446,1599 L 10446,1599 Z M 10755,1891 L 10755,1891 Z"/>
       <path fill="none" stroke="rgb(52,101,164)" d="M 10546,1699 C 10631,1699 10646,1698 10646,1799 10646,1900 10746,2000 10746,1999 10662,2014 10446,1784 10446,1699 10446,1614 10461,1699 10546,1699 Z"/>
       <path fill="none" stroke="rgb(52,101,164)" d="M 10446,1599 L 10446,1599 Z"/>
       <path fill="none" stroke="rgb(52,101,164)" d="M 10755,1891 L 10755,1891 Z"/>
      </g>
     </g>
    </g>
   </g>
  </g>
 </g>
</svg>