<?xml version="1.0" encoding="UTF-8"?>

<svg version="1.2" baseProfile="tiny" width="160mm" height="49mm" viewBox="0 0 16000 4900" preserveAspectRatio="xMidYMid" fill-rule="evenodd" stroke-width="28.222" stroke-linejoin="round" xmlns="http://www.w3.org/2000/svg" xmlns:ooo="http://xml.openoffice.org/svg/export" xmlns:xlink="http://www.w3.org/1999/xlink" xml:space="preserve">
 <defs class="ClipPathGroup">
  <clipPath id="presentation_clip_path" clipPathUnits="userSpaceOnUse">
   <rect x="0" y="0" width="16000" height="4900"/>
  </clipPath>
 </defs>
 <defs class="TextShapeIndex">
  <g ooo:slide="id1" ooo:id-list="id3 id4 id5 id6"/>
 </defs>
 <defs class="EmbeddedBulletChars">
  <g id="bullet-char-template(57356)" transform="scale(0.00048828125,-0.00048828125)">
   <path d="M 580,1141 L 1163,571 580,0 -4,571 580,1141 Z"/>
  </g>
  <g id="bullet-char-template(57354)" transform="scale(0.00048828125,-0.00048828125)">
   <path d="M 8,1128 L 1137,1128 1137,0 8,0 8,1128 Z"/>
  </g>
  <g id="bullet-char-template(10146)" transform="scale(0.00048828125,-0.00048828125)">
   <path d="M 174,0 L 602,739 174,1481 1456,739 174,0 Z M 1358,739 L 309,1346 659,739 1358,739 Z"/>
  </g>
  <g id="bullet-char-template(10132)" transform="scale(0.00048828125,-0.00048828125)">
   <path d="M 2015,739 L 1276,0 717,0 1260,543 174,543 174,936 1260,936 717,1481 1274,1481 2015,739 Z"/>
  </g>
  <g id="bullet-char-template(10007)" transform="scale(0.00048828125,-0.00048828125)">
   <path d="M 0,-2 C -7,14 -16,27 -25,37 L 356,567 C 262,823 215,952 215,954 215,979 228,992 255,992 264,992 276,990 289,987 310,991 331,999 354,1012 L 381,999 492,748 772,1049 836,1024 860,1049 C 881,1039 901,1025 922,1006 886,937 835,863 770,784 769,783 710,716 594,584 L 774,223 C 774,196 753,168 711,139 L 727,119 C 717,90 699,76 672,76 641,76 570,178 457,381 L 164,-76 C 142,-110 111,-127 72,-127 30,-127 9,-110 8,-76 1,-67 -2,-52 -2,-32 -2,-23 -1,-13 0,-2 Z"/>
  </g>
  <g id="bullet-char-template(10004)" transform="scale(0.00048828125,-0.00048828125)">
   <path d="M 285,-33 C 182,-33 111,30 74,156 52,228 41,333 41,471 41,549 55,616 82,672 116,743 169,778 240,778 293,778 328,747 346,684 L 369,508 C 377,444 397,411 428,410 L 1163,1116 C 1174,1127 1196,1133 1229,1133 1271,1133 1292,1118 1292,1087 L 1292,965 C 1292,929 1282,901 1262,881 L 442,47 C 390,-6 338,-33 285,-33 Z"/>
  </g>
  <g id="bullet-char-template(9679)" transform="scale(0.00048828125,-0.00048828125)">
   <path d="M 813,0 C 632,0 489,54 383,161 276,268 223,411 223,592 223,773 276,916 383,1023 489,1130 632,1184 813,1184 992,1184 1136,1130 1245,1023 1353,916 1407,772 1407,592 1407,412 1353,268 1245,161 1136,54 992,0 813,0 Z"/>
  </g>
  <g id="bullet-char-template(8226)" transform="scale(0.00048828125,-0.00048828125)">
   <path d="M 346,457 C 273,457 209,483 155,535 101,586 74,649 74,723 74,796 101,859 155,911 209,963 273,989 346,989 419,989 480,963 531,910 582,859 608,796 608,723 608,648 583,586 532,535 482,483 420,457 346,457 Z"/>
  </g>
  <g id="bullet-char-template(8211)" transform="scale(0.00048828125,-0.00048828125)">
   <path d="M -4,459 L 1135,459 1135,606 -4,606 -4,459 Z"/>
  </g>
 </defs>
 <defs class="TextEmbeddedBitmaps"/>
 <g>
  <g id="id2" class="Master_Slide">
   <g id="bg-id2" class="Background"/>
   <g id="bo-id2" class="BackgroundObjects"/>
  </g>
 </g>
 <g class="SlideGroup">
  <g>
   <g id="id1" class="Slide" clip-path="url(#presentation_clip_path)">
    <g class="Page">
     <g class="com.sun.star.drawing.ClosedBezierShape">
      <g id="id3">
       <path fill="rgb(255,255,255)" stroke="none" d="M 1300,3300 C 2343,3300 3916,1436 3900,2400 3884,3364 2943,4700 1900,4700 858,4700 84,4064 100,3100 116,2136 258,3300 1300,3300 Z M 128,1599 L 128,1599 Z M 3749,5000 L 3749,5000 Z"/>
       <path fill="none" stroke="rgb(52,101,164)" d="M 1300,3300 C 2343,3300 3916,1436 3900,2400 3884,3364 2943,4700 1900,4700 858,4700 84,4064 100,3100 116,2136 258,3300 1300,3300 Z"/>
       <path fill="none" stroke="rgb(52,101,164)" d="M 128,1599 L 128,1599 Z"/>
       <path fill="none" stroke="rgb(52,101,164)" d="M 3749,5000 L 3749,5000 Z"/>
      </g>
     </g>
     <g class="com.sun.star.drawing.ClosedBezierShape">
      <g id="id4">
       <path fill="rgb(255,255,255)" stroke="none" d="M 7300,1700 C 7400,1900 6525,2173 6600,2200 6728,2267 7600,2000 7600,2100 7700,2400 6678,2431 6700,2500 6722,2569 7800,2400 7800,2500 7800,2700 6616,2824 6600,2900 6588,2959 7600,2800 7600,3000 7600,3200 6646,3143 6600,3200 6533,3303 7300,3200 7400,3500 7100,3800 5853,4201 4553,3501 4400,3000 3700,2600 4600,2100 5500,1600 7000,1600 7300,1700 Z M 4299,1300 L 4299,1300 Z M 8400,4301 L 8400,4301 Z"/>
       <path fill="none" stroke="rgb(52,101,164)" d="M 7300,1700 C 7400,1900 6525,2173 6600,2200 6728,2267 7600,2000 7600,2100 7700,2400 6678,2431 6700,2500 6722,2569 7800,2400 7800,2500 7800,2700 6616,2824 6600,2900 6588,2959 7600,2800 7600,3000 7600,3200 6646,3143 6600,3200 6533,3303 7300,3200 7400,3500 7100,3800 5853,4201 4553,3501 4400,3000 3700,2600 4600,2100 5500,1600 7000,1600 7300,1700 Z"/>
       <path fill="none" stroke="rgb(52,101,164)" d="M 4299,1300 L 4299,1300 Z"/>
       <path fill="none" stroke="rgb(52,101,164)" d="M 8400,4301 L 8400,4301 Z"/>
      </g>
     </g>
     <g class="com.sun.star.drawing.ClosedBezierShape">
      <g id="id5">
       <path fill="rgb(255,255,255)" stroke="none" d="M 10698,2351 C 10598,2600 9570,1692 9500,1800 9458,1865 10398,2599 10398,2900 10298,3100 9275,2247 9200,2300 9125,2353 9998,3000 9999,3198 9798,3300 9054,2722 9000,2700 8852,2710 9498,3100 9399,3298 8968,3196 8098,2900 8299,2598 8298,2300 9031,2494 8982,2298 8926,1913 8319,1042 8698,901 8824,854 10598,1799 10698,2351 Z M 8598,1401 L 8598,1401 Z M 9899,2698 L 9899,2698 Z"/>
       <path fill="none" stroke="rgb(52,101,164)" d="M 10698,2351 C 10598,2600 9570,1692 9500,1800 9458,1865 10398,2599 10398,2900 10298,3100 9275,2247 9200,2300 9125,2353 9998,3000 9999,3198 9798,3300 9054,2722 9000,2700 8852,2710 9498,3100 9399,3298 8968,3196 8098,2900 8299,2598 8298,2300 9031,2494 8982,2298 8926,1913 8319,1042 8698,901 8824,854 10598,1799 10698,2351 Z"/>
       <path fill="none" stroke="rgb(52,101,164)" d="M 8598,1401 L 8598,1401 Z"/>
       <path fill="none" stroke="rgb(52,101,164)" d="M 9899,2698 L 9899,2698 Z"/>
      </g>
     </g>
     <g class="com.sun.star.drawing.ClosedBezierShape">
      <g id="id6">
       <path fill="rgb(255,255,255)" stroke="none" d="M 13600,499 C 13916,464 14518,300 14800,300 15100,300 14125,711 14200,700 14598,645 15100,300 15400,400 15400,600 14234,918 14200,1000 14191,1074 15200,700 15300,900 15200,1200 14092,1201 14000,1300 13863,1401 14800,1200 14900,1400 14800,1600 13844,1559 13800,1600 13683,1716 14300,1700 14600,1800 14500,2000 12889,2656 12800,2700 12600,2700 12695,2660 12400,2700 12000,2300 12600,1709 12600,1199 12600,689 12920,499 13600,499 Z M 12400,499 L 12400,499 Z M 14801,2300 L 14801,2300 Z"/>
       <path fill="none" stroke="rgb(52,101,164)" d="M 13600,499 C 13916,464 14518,300 14800,300 15100,300 14125,711 14200,700 14598,645 15100,300 15400,400 15400,600 14234,918 14200,1000 14191,1074 15200,700 15300,900 15200,1200 14092,1201 14000,1300 13863,1401 14800,1200 14900,1400 14800,1600 13844,1559 13800,1600 13683,1716 14300,1700 14600,1800 14500,2000 12889,2656 12800,2700 12600,2700 12695,2660 12400,2700 12000,2300 12600,1709 12600,1199 12600,689 12920,499 13600,499 Z"/>
       <path fill="none" stroke="rgb(52,101,164)" d="M 12400,499 L 12400,499 Z"/>
       <path fill="none" stroke="rgb(52,101,164)" d="M 14801,2300 L 14801,2300 Z"/>
      </g>
     </g>
    </g>
   </g>
  </g>
 </g>
</svg>